var netherlands = {
  "trumpet(s)": [
    {
      "time": "0i",
      "midiNote": 62,
      "noteName": "D4",
      "velocity": 0.6692913385826772,
      "duration": "41i"
    },
    {
      "time": "49i",
      "midiNote": 67,
      "noteName": "G4",
      "velocity": 0.7952755905511811,
      "duration": "38i"
    },
    {
      "time": "95i",
      "midiNote": 67,
      "noteName": "G4",
      "velocity": 0.6062992125984252,
      "duration": "40i"
    },
    {
      "time": "143i",
      "midiNote": 69,
      "noteName": "A4",
      "velocity": 0.6456692913385826,
      "duration": "25i"
    },
    {
      "time": "167i",
      "midiNote": 71,
      "noteName": "B4",
      "velocity": 0.6062992125984252,
      "duration": "15i"
    },
    {
      "time": "191i",
      "midiNote": 72,
      "noteName": "C5",
      "velocity": 0.5669291338582677,
      "duration": "25i"
    },
    {
      "time": "216i",
      "midiNote": 69,
      "noteName": "A4",
      "velocity": 0.6141732283464567,
      "duration": "16i"
    },
    {
      "time": "240i",
      "midiNote": 71,
      "noteName": "B4",
      "velocity": 0.5669291338582677,
      "duration": "41i"
    },
    {
      "time": "288i",
      "midiNote": 69,
      "noteName": "A4",
      "velocity": 0.6220472440944882,
      "duration": "20i"
    },
    {
      "time": "311i",
      "midiNote": 71,
      "noteName": "B4",
      "velocity": 0.6692913385826772,
      "duration": "16i"
    },
    {
      "time": "335i",
      "midiNote": 72,
      "noteName": "C5",
      "velocity": 0.6220472440944882,
      "duration": "38i"
    },
    {
      "time": "383i",
      "midiNote": 71,
      "noteName": "B4",
      "velocity": 0.6692913385826772,
      "duration": "44i"
    },
    {
      "time": "432i",
      "midiNote": 69,
      "noteName": "A4",
      "velocity": 0.6692913385826772,
      "duration": "19i"
    },
    {
      "time": "455i",
      "midiNote": 67,
      "noteName": "G4",
      "velocity": 0.5590551181102362,
      "duration": "14i"
    },
    {
      "time": "480i",
      "midiNote": 69,
      "noteName": "A4",
      "velocity": 0.6141732283464567,
      "duration": "41i"
    },
    {
      "time": "528i",
      "midiNote": 67,
      "noteName": "G4",
      "velocity": 0.7480314960629921,
      "duration": "129i"
    },
    {
      "time": "673i",
      "midiNote": 62,
      "noteName": "D4",
      "velocity": 0.6456692913385826,
      "duration": "43i"
    },
    {
      "time": "720i",
      "midiNote": 67,
      "noteName": "G4",
      "velocity": 0.7716535433070866,
      "duration": "39i"
    },
    {
      "time": "768i",
      "midiNote": 67,
      "noteName": "G4",
      "velocity": 0.7716535433070866,
      "duration": "39i"
    },
    {
      "time": "816i",
      "midiNote": 69,
      "noteName": "A4",
      "velocity": 0.7480314960629921,
      "duration": "25i"
    },
    {
      "time": "839i",
      "midiNote": 71,
      "noteName": "B4",
      "velocity": 0.6692913385826772,
      "duration": "17i"
    },
    {
      "time": "864i",
      "midiNote": 72,
      "noteName": "C5",
      "velocity": 0.7086614173228346,
      "duration": "23i"
    },
    {
      "time": "888i",
      "midiNote": 69,
      "noteName": "A4",
      "velocity": 0.6850393700787402,
      "duration": "18i"
    },
    {
      "time": "912i",
      "midiNote": 71,
      "noteName": "B4",
      "velocity": 0.7086614173228346,
      "duration": "44i"
    },
    {
      "time": "959i",
      "midiNote": 69,
      "noteName": "A4",
      "velocity": 0.6850393700787402,
      "duration": "22i"
    },
    {
      "time": "983i",
      "midiNote": 71,
      "noteName": "B4",
      "velocity": 0.7480314960629921,
      "duration": "15i"
    },
    {
      "time": "1007i",
      "midiNote": 72,
      "noteName": "C5",
      "velocity": 0.6692913385826772,
      "duration": "43i"
    },
    {
      "time": "1056i",
      "midiNote": 71,
      "noteName": "B4",
      "velocity": 0.6692913385826772,
      "duration": "42i"
    },
    {
      "time": "1104i",
      "midiNote": 69,
      "noteName": "A4",
      "velocity": 0.6692913385826772,
      "duration": "18i"
    },
    {
      "time": "1128i",
      "midiNote": 67,
      "noteName": "G4",
      "velocity": 0.7480314960629921,
      "duration": "17i"
    },
    {
      "time": "1152i",
      "midiNote": 69,
      "noteName": "A4",
      "velocity": 0.7086614173228346,
      "duration": "45i"
    },
    {
      "time": "1201i",
      "midiNote": 67,
      "noteName": "G4",
      "velocity": 0.7480314960629921,
      "duration": "133i"
    },
    {
      "time": "1345i",
      "midiNote": 71,
      "noteName": "B4",
      "velocity": 0.7086614173228346,
      "duration": "21i"
    },
    {
      "time": "1367i",
      "midiNote": 72,
      "noteName": "C5",
      "velocity": 0.6692913385826772,
      "duration": "16i"
    },
    {
      "time": "1392i",
      "midiNote": 74,
      "noteName": "D5",
      "velocity": 0.6692913385826772,
      "duration": "92i"
    },
    {
      "time": "1487i",
      "midiNote": 76,
      "noteName": "E5",
      "velocity": 0.6692913385826772,
      "duration": "47i"
    },
    {
      "time": "1536i",
      "midiNote": 74,
      "noteName": "D5",
      "velocity": 0.6850393700787402,
      "duration": "94i"
    },
    {
      "time": "1632i",
      "midiNote": 72,
      "noteName": "C5",
      "velocity": 0.6456692913385826,
      "duration": "47i"
    },
    {
      "time": "1681i",
      "midiNote": 71,
      "noteName": "B4",
      "velocity": 0.6141732283464567,
      "duration": "41i"
    },
    {
      "time": "1728i",
      "midiNote": 69,
      "noteName": "A4",
      "velocity": 0.5905511811023622,
      "duration": "22i"
    },
    {
      "time": "1751i",
      "midiNote": 71,
      "noteName": "B4",
      "velocity": 0.6692913385826772,
      "duration": "18i"
    },
    {
      "time": "1775i",
      "midiNote": 72,
      "noteName": "C5",
      "velocity": 0.6692913385826772,
      "duration": "46i"
    },
    {
      "time": "1824i",
      "midiNote": 71,
      "noteName": "B4",
      "velocity": 0.7086614173228346,
      "duration": "47i"
    },
    {
      "time": "1872i",
      "midiNote": 69,
      "noteName": "A4",
      "velocity": 0.6850393700787402,
      "duration": "45i"
    },
    {
      "time": "1920i",
      "midiNote": 67,
      "noteName": "G4",
      "velocity": 0.7086614173228346,
      "duration": "45i"
    },
    {
      "time": "1968i",
      "midiNote": 69,
      "noteName": "A4",
      "velocity": 0.7480314960629921,
      "duration": "87i"
    },
    {
      "time": "2064i",
      "midiNote": 62,
      "noteName": "D4",
      "velocity": 0.6692913385826772,
      "duration": "42i"
    },
    {
      "time": "2112i",
      "midiNote": 67,
      "noteName": "G4",
      "velocity": 0.7716535433070866,
      "duration": "22i"
    },
    {
      "time": "2136i",
      "midiNote": 66,
      "noteName": "F#4",
      "velocity": 0.6141732283464567,
      "duration": "22i"
    },
    {
      "time": "2160i",
      "midiNote": 67,
      "noteName": "G4",
      "velocity": 0.6850393700787402,
      "duration": "23i"
    },
    {
      "time": "2183i",
      "midiNote": 69,
      "noteName": "A4",
      "velocity": 0.7322834645669292,
      "duration": "19i"
    },
    {
      "time": "2208i",
      "midiNote": 71,
      "noteName": "B4",
      "velocity": 0.6850393700787402,
      "duration": "49i"
    },
    {
      "time": "2257i",
      "midiNote": 69,
      "noteName": "A4",
      "velocity": 0.6692913385826772,
      "duration": "94i"
    },
    {
      "time": "2352i",
      "midiNote": 67,
      "noteName": "G4",
      "velocity": 0.7322834645669292,
      "duration": "46i"
    },
    {
      "time": "2399i",
      "midiNote": 66,
      "noteName": "F#4",
      "velocity": 0.6062992125984252,
      "duration": "49i"
    },
    {
      "time": "2447i",
      "midiNote": 62,
      "noteName": "D4",
      "velocity": 0.6220472440944882,
      "duration": "48i"
    },
    {
      "time": "2495i",
      "midiNote": 64,
      "noteName": "E4",
      "velocity": 0.7086614173228346,
      "duration": "23i"
    },
    {
      "time": "2518i",
      "midiNote": 66,
      "noteName": "F#4",
      "velocity": 0.6692913385826772,
      "duration": "24i"
    },
    {
      "time": "2543i",
      "midiNote": 67,
      "noteName": "G4",
      "velocity": 0.7952755905511811,
      "duration": "42i"
    },
    {
      "time": "2592i",
      "midiNote": 67,
      "noteName": "G4",
      "velocity": 0.7952755905511811,
      "duration": "45i"
    },
    {
      "time": "2640i",
      "midiNote": 66,
      "noteName": "F#4",
      "velocity": 0.7480314960629921,
      "duration": "47i"
    },
    {
      "time": "2689i",
      "midiNote": 67,
      "noteName": "G4",
      "velocity": 0.7952755905511811,
      "duration": "162i"
    }
  ],
  "fr. horn(s)": [
    {
      "time": "0i",
      "midiNote": 62,
      "noteName": "D4",
      "velocity": 0.5433070866141733,
      "duration": "39i"
    },
    {
      "time": "50i",
      "midiNote": 59,
      "noteName": "B3",
      "velocity": 0.5354330708661418,
      "duration": "36i"
    },
    {
      "time": "50i",
      "midiNote": 62,
      "noteName": "D4",
      "velocity": 0.5826771653543307,
      "duration": "43i"
    },
    {
      "time": "97i",
      "midiNote": 64,
      "noteName": "E4",
      "velocity": 0.5354330708661418,
      "duration": "36i"
    },
    {
      "time": "97i",
      "midiNote": 59,
      "noteName": "B3",
      "velocity": 0.48031496062992124,
      "duration": "40i"
    },
    {
      "time": "142i",
      "midiNote": 64,
      "noteName": "E4",
      "velocity": 0.5433070866141733,
      "duration": "47i"
    },
    {
      "time": "191i",
      "midiNote": 66,
      "noteName": "F#4",
      "velocity": 0.5118110236220472,
      "duration": "42i"
    },
    {
      "time": "192i",
      "midiNote": 62,
      "noteName": "D4",
      "velocity": 0.5433070866141733,
      "duration": "40i"
    },
    {
      "time": "240i",
      "midiNote": 62,
      "noteName": "D4",
      "velocity": 0.4645669291338583,
      "duration": "40i"
    },
    {
      "time": "240i",
      "midiNote": 67,
      "noteName": "G4",
      "velocity": 0.5669291338582677,
      "duration": "44i"
    },
    {
      "time": "288i",
      "midiNote": 62,
      "noteName": "D4",
      "velocity": 0.5590551181102362,
      "duration": "48i"
    },
    {
      "time": "334i",
      "midiNote": 60,
      "noteName": "C4",
      "velocity": 0.41732283464566927,
      "duration": "46i"
    },
    {
      "time": "334i",
      "midiNote": 67,
      "noteName": "G4",
      "velocity": 0.5826771653543307,
      "duration": "36i"
    },
    {
      "time": "382i",
      "midiNote": 62,
      "noteName": "D4",
      "velocity": 0.5669291338582677,
      "duration": "41i"
    },
    {
      "time": "382i",
      "midiNote": 67,
      "noteName": "G4",
      "velocity": 0.6062992125984252,
      "duration": "38i"
    },
    {
      "time": "431i",
      "midiNote": 64,
      "noteName": "E4",
      "velocity": 0.5118110236220472,
      "duration": "48i"
    },
    {
      "time": "479i",
      "midiNote": 62,
      "noteName": "D4",
      "velocity": 0.6456692913385826,
      "duration": "26i"
    },
    {
      "time": "479i",
      "midiNote": 66,
      "noteName": "F#4",
      "velocity": 0.5826771653543307,
      "duration": "45i"
    },
    {
      "time": "503i",
      "midiNote": 60,
      "noteName": "C4",
      "velocity": 0.5433070866141733,
      "duration": "23i"
    },
    {
      "time": "528i",
      "midiNote": 59,
      "noteName": "B3",
      "velocity": 0.5354330708661418,
      "duration": "134i"
    },
    {
      "time": "528i",
      "midiNote": 62,
      "noteName": "D4",
      "velocity": 0.5433070866141733,
      "duration": "130i"
    },
    {
      "time": "671i",
      "midiNote": 62,
      "noteName": "D4",
      "velocity": 0.5354330708661418,
      "duration": "36i"
    },
    {
      "time": "720i",
      "midiNote": 59,
      "noteName": "B3",
      "velocity": 0.5354330708661418,
      "duration": "37i"
    },
    {
      "time": "720i",
      "midiNote": 62,
      "noteName": "D4",
      "velocity": 0.5354330708661418,
      "duration": "47i"
    },
    {
      "time": "768i",
      "midiNote": 59,
      "noteName": "B3",
      "velocity": 0.5590551181102362,
      "duration": "42i"
    },
    {
      "time": "768i",
      "midiNote": 64,
      "noteName": "E4",
      "velocity": 0.5433070866141733,
      "duration": "39i"
    },
    {
      "time": "815i",
      "midiNote": 64,
      "noteName": "E4",
      "velocity": 0.5433070866141733,
      "duration": "44i"
    },
    {
      "time": "864i",
      "midiNote": 66,
      "noteName": "F#4",
      "velocity": 0.6062992125984252,
      "duration": "42i"
    },
    {
      "time": "864i",
      "midiNote": 62,
      "noteName": "D4",
      "velocity": 0.5590551181102362,
      "duration": "37i"
    },
    {
      "time": "912i",
      "midiNote": 62,
      "noteName": "D4",
      "velocity": 0.5590551181102362,
      "duration": "37i"
    },
    {
      "time": "913i",
      "midiNote": 67,
      "noteName": "G4",
      "velocity": 0.5826771653543307,
      "duration": "45i"
    },
    {
      "time": "959i",
      "midiNote": 62,
      "noteName": "D4",
      "velocity": 0.6062992125984252,
      "duration": "44i"
    },
    {
      "time": "1006i",
      "midiNote": 60,
      "noteName": "C4",
      "velocity": 0.6062992125984252,
      "duration": "45i"
    },
    {
      "time": "1006i",
      "midiNote": 67,
      "noteName": "G4",
      "velocity": 0.5354330708661418,
      "duration": "37i"
    },
    {
      "time": "1053i",
      "midiNote": 62,
      "noteName": "D4",
      "velocity": 0.5826771653543307,
      "duration": "48i"
    },
    {
      "time": "1054i",
      "midiNote": 67,
      "noteName": "G4",
      "velocity": 0.5590551181102362,
      "duration": "45i"
    },
    {
      "time": "1102i",
      "midiNote": 64,
      "noteName": "E4",
      "velocity": 0.5590551181102362,
      "duration": "52i"
    },
    {
      "time": "1151i",
      "midiNote": 62,
      "noteName": "D4",
      "velocity": 0.5826771653543307,
      "duration": "25i"
    },
    {
      "time": "1152i",
      "midiNote": 66,
      "noteName": "F#4",
      "velocity": 0.5354330708661418,
      "duration": "42i"
    },
    {
      "time": "1175i",
      "midiNote": 60,
      "noteName": "C4",
      "velocity": 0.5433070866141733,
      "duration": "21i"
    },
    {
      "time": "1199i",
      "midiNote": 59,
      "noteName": "B3",
      "velocity": 0.2440944881889764,
      "duration": "115i"
    },
    {
      "time": "1202i",
      "midiNote": 62,
      "noteName": "D4",
      "velocity": 0.25984251968503935,
      "duration": "106i"
    },
    {
      "time": "1343i",
      "midiNote": 67,
      "noteName": "G4",
      "velocity": 0.5826771653543307,
      "duration": "41i"
    },
    {
      "time": "1392i",
      "midiNote": 67,
      "noteName": "G4",
      "velocity": 0.5905511811023622,
      "duration": "80i"
    },
    {
      "time": "1488i",
      "midiNote": 72,
      "noteName": "C5",
      "velocity": 0.5118110236220472,
      "duration": "37i"
    },
    {
      "time": "1488i",
      "midiNote": 67,
      "noteName": "G4",
      "velocity": 0.5354330708661418,
      "duration": "40i"
    },
    {
      "time": "1536i",
      "midiNote": 66,
      "noteName": "F#4",
      "velocity": 0.44881889763779526,
      "duration": "90i"
    },
    {
      "time": "1537i",
      "midiNote": 69,
      "noteName": "A4",
      "velocity": 0.3228346456692913,
      "duration": "74i"
    },
    {
      "time": "1632i",
      "midiNote": 62,
      "noteName": "D4",
      "velocity": 0.5118110236220472,
      "duration": "35i"
    },
    {
      "time": "1632i",
      "midiNote": 69,
      "noteName": "A4",
      "velocity": 0.4645669291338583,
      "duration": "43i"
    },
    {
      "time": "1679i",
      "midiNote": 67,
      "noteName": "G4",
      "velocity": 0.5905511811023622,
      "duration": "84i"
    },
    {
      "time": "1680i",
      "midiNote": 62,
      "noteName": "D4",
      "velocity": 0.4645669291338583,
      "duration": "84i"
    },
    {
      "time": "1775i",
      "midiNote": 67,
      "noteName": "G4",
      "velocity": 0.5669291338582677,
      "duration": "41i"
    },
    {
      "time": "1775i",
      "midiNote": 64,
      "noteName": "E4",
      "velocity": 0.5433070866141733,
      "duration": "39i"
    },
    {
      "time": "1824i",
      "midiNote": 62,
      "noteName": "D4",
      "velocity": 0.5669291338582677,
      "duration": "38i"
    },
    {
      "time": "1824i",
      "midiNote": 67,
      "noteName": "G4",
      "velocity": 0.5826771653543307,
      "duration": "47i"
    },
    {
      "time": "1872i",
      "midiNote": 64,
      "noteName": "E4",
      "velocity": 0.6062992125984252,
      "duration": "44i"
    },
    {
      "time": "1872i",
      "midiNote": 60,
      "noteName": "C4",
      "velocity": 0.5354330708661418,
      "duration": "51i"
    },
    {
      "time": "1921i",
      "midiNote": 62,
      "noteName": "D4",
      "velocity": 0.6220472440944882,
      "duration": "39i"
    },
    {
      "time": "1969i",
      "midiNote": 66,
      "noteName": "F#4",
      "velocity": 0.5354330708661418,
      "duration": "89i"
    },
    {
      "time": "1969i",
      "midiNote": 62,
      "noteName": "D4",
      "velocity": 0.5354330708661418,
      "duration": "86i"
    },
    {
      "time": "2066i",
      "midiNote": 62,
      "noteName": "D4",
      "velocity": 0.5826771653543307,
      "duration": "38i"
    },
    {
      "time": "2112i",
      "midiNote": 64,
      "noteName": "E4",
      "velocity": 0.48031496062992124,
      "duration": "89i"
    },
    {
      "time": "2113i",
      "midiNote": 59,
      "noteName": "B3",
      "velocity": 0.5118110236220472,
      "duration": "85i"
    },
    {
      "time": "2208i",
      "midiNote": 66,
      "noteName": "F#4",
      "velocity": 0.5354330708661418,
      "duration": "48i"
    },
    {
      "time": "2208i",
      "midiNote": 59,
      "noteName": "B3",
      "velocity": 0.5196850393700787,
      "duration": "34i"
    },
    {
      "time": "2256i",
      "midiNote": 60,
      "noteName": "C4",
      "velocity": 0.5669291338582677,
      "duration": "86i"
    },
    {
      "time": "2256i",
      "midiNote": 64,
      "noteName": "E4",
      "velocity": 0.5433070866141733,
      "duration": "87i"
    },
    {
      "time": "2352i",
      "midiNote": 64,
      "noteName": "E4",
      "velocity": 0.5354330708661418,
      "duration": "38i"
    },
    {
      "time": "2353i",
      "midiNote": 60,
      "noteName": "C4",
      "velocity": 0.5590551181102362,
      "duration": "27i"
    },
    {
      "time": "2400i",
      "midiNote": 62,
      "noteName": "D4",
      "velocity": 0.7086614173228346,
      "duration": "45i"
    },
    {
      "time": "2400i",
      "midiNote": 57,
      "noteName": "A3",
      "velocity": 0.49606299212598426,
      "duration": "39i"
    },
    {
      "time": "2447i",
      "midiNote": 54,
      "noteName": "F#3",
      "velocity": 0.6062992125984252,
      "duration": "41i"
    },
    {
      "time": "2447i",
      "midiNote": 57,
      "noteName": "A3",
      "velocity": 0.7716535433070866,
      "duration": "33i"
    },
    {
      "time": "2495i",
      "midiNote": 57,
      "noteName": "A3",
      "velocity": 0.5826771653543307,
      "duration": "39i"
    },
    {
      "time": "2496i",
      "midiNote": 62,
      "noteName": "D4",
      "velocity": 0.3858267716535433,
      "duration": "33i"
    },
    {
      "time": "2542i",
      "midiNote": 62,
      "noteName": "D4",
      "velocity": 0.5905511811023622,
      "duration": "40i"
    },
    {
      "time": "2542i",
      "midiNote": 55,
      "noteName": "G3",
      "velocity": 0.48031496062992124,
      "duration": "45i"
    },
    {
      "time": "2591i",
      "midiNote": 60,
      "noteName": "C4",
      "velocity": 0.5433070866141733,
      "duration": "45i"
    },
    {
      "time": "2591i",
      "midiNote": 64,
      "noteName": "E4",
      "velocity": 0.5590551181102362,
      "duration": "48i"
    },
    {
      "time": "2639i",
      "midiNote": 62,
      "noteName": "D4",
      "velocity": 0.5590551181102362,
      "duration": "38i"
    },
    {
      "time": "2639i",
      "midiNote": 57,
      "noteName": "A3",
      "velocity": 0.5354330708661418,
      "duration": "49i"
    },
    {
      "time": "2687i",
      "midiNote": 59,
      "noteName": "B3",
      "velocity": 0.5118110236220472,
      "duration": "167i"
    },
    {
      "time": "2688i",
      "midiNote": 62,
      "noteName": "D4",
      "velocity": 0.5826771653543307,
      "duration": "166i"
    }
  ],
  "trombone(s)": [
    {
      "time": "0i",
      "midiNote": 50,
      "noteName": "D3",
      "velocity": 0.6850393700787402,
      "duration": "48i"
    },
    {
      "time": "49i",
      "midiNote": 55,
      "noteName": "G3",
      "velocity": 0.5196850393700787,
      "duration": "46i"
    },
    {
      "time": "95i",
      "midiNote": 52,
      "noteName": "E3",
      "velocity": 0.5826771653543307,
      "duration": "43i"
    },
    {
      "time": "143i",
      "midiNote": 48,
      "noteName": "C3",
      "velocity": 0.49606299212598426,
      "duration": "45i"
    },
    {
      "time": "191i",
      "midiNote": 50,
      "noteName": "D3",
      "velocity": 0.5905511811023622,
      "duration": "44i"
    },
    {
      "time": "239i",
      "midiNote": 55,
      "noteName": "G3",
      "velocity": 0.5826771653543307,
      "duration": "47i"
    },
    {
      "time": "286i",
      "midiNote": 54,
      "noteName": "F#3",
      "velocity": 0.5905511811023622,
      "duration": "45i"
    },
    {
      "time": "334i",
      "midiNote": 52,
      "noteName": "E3",
      "velocity": 0.5905511811023622,
      "duration": "44i"
    },
    {
      "time": "382i",
      "midiNote": 50,
      "noteName": "D3",
      "velocity": 0.5826771653543307,
      "duration": "45i"
    },
    {
      "time": "431i",
      "midiNote": 48,
      "noteName": "C3",
      "velocity": 0.5826771653543307,
      "duration": "49i"
    },
    {
      "time": "479i",
      "midiNote": 50,
      "noteName": "D3",
      "velocity": 0.5826771653543307,
      "duration": "46i"
    },
    {
      "time": "527i",
      "midiNote": 43,
      "noteName": "G2",
      "velocity": 0.5826771653543307,
      "duration": "130i"
    },
    {
      "time": "672i",
      "midiNote": 50,
      "noteName": "D3",
      "velocity": 0.7322834645669292,
      "duration": "45i"
    },
    {
      "time": "719i",
      "midiNote": 55,
      "noteName": "G3",
      "velocity": 0.5669291338582677,
      "duration": "46i"
    },
    {
      "time": "766i",
      "midiNote": 52,
      "noteName": "E3",
      "velocity": 0.6062992125984252,
      "duration": "45i"
    },
    {
      "time": "816i",
      "midiNote": 48,
      "noteName": "C3",
      "velocity": 0.5354330708661418,
      "duration": "42i"
    },
    {
      "time": "863i",
      "midiNote": 50,
      "noteName": "D3",
      "velocity": 0.5905511811023622,
      "duration": "49i"
    },
    {
      "time": "911i",
      "midiNote": 55,
      "noteName": "G3",
      "velocity": 0.5354330708661418,
      "duration": "46i"
    },
    {
      "time": "959i",
      "midiNote": 54,
      "noteName": "F#3",
      "velocity": 0.6220472440944882,
      "duration": "43i"
    },
    {
      "time": "1006i",
      "midiNote": 52,
      "noteName": "E3",
      "velocity": 0.5669291338582677,
      "duration": "46i"
    },
    {
      "time": "1054i",
      "midiNote": 50,
      "noteName": "D3",
      "velocity": 0.6062992125984252,
      "duration": "46i"
    },
    {
      "time": "1103i",
      "midiNote": 48,
      "noteName": "C3",
      "velocity": 0.5826771653543307,
      "duration": "49i"
    },
    {
      "time": "1151i",
      "midiNote": 50,
      "noteName": "D3",
      "velocity": 0.6220472440944882,
      "duration": "45i"
    },
    {
      "time": "1199i",
      "midiNote": 43,
      "noteName": "G2",
      "velocity": 0.6692913385826772,
      "duration": "127i"
    },
    {
      "time": "1343i",
      "midiNote": 43,
      "noteName": "G2",
      "velocity": 0.6456692913385826,
      "duration": "21i"
    },
    {
      "time": "1366i",
      "midiNote": 45,
      "noteName": "A2",
      "velocity": 0.7480314960629921,
      "duration": "25i"
    },
    {
      "time": "1391i",
      "midiNote": 47,
      "noteName": "B2",
      "velocity": 0.7086614173228346,
      "duration": "94i"
    },
    {
      "time": "1488i",
      "midiNote": 48,
      "noteName": "C3",
      "velocity": 0.5590551181102362,
      "duration": "47i"
    },
    {
      "time": "1535i",
      "midiNote": 50,
      "noteName": "D3",
      "velocity": 0.5905511811023622,
      "duration": "84i"
    },
    {
      "time": "1631i",
      "midiNote": 52,
      "noteName": "E3",
      "velocity": 0.6692913385826772,
      "duration": "25i"
    },
    {
      "time": "1654i",
      "midiNote": 54,
      "noteName": "F#3",
      "velocity": 0.6692913385826772,
      "duration": "25i"
    },
    {
      "time": "1679i",
      "midiNote": 55,
      "noteName": "G3",
      "velocity": 0.5669291338582677,
      "duration": "96i"
    },
    {
      "time": "1775i",
      "midiNote": 48,
      "noteName": "C3",
      "velocity": 0.6456692913385826,
      "duration": "49i"
    },
    {
      "time": "1823i",
      "midiNote": 43,
      "noteName": "G2",
      "velocity": 0.7480314960629921,
      "duration": "43i"
    },
    {
      "time": "1870i",
      "midiNote": 45,
      "noteName": "A2",
      "velocity": 0.7480314960629921,
      "duration": "45i"
    },
    {
      "time": "1919i",
      "midiNote": 47,
      "noteName": "B2",
      "velocity": 0.7322834645669292,
      "duration": "24i"
    },
    {
      "time": "1943i",
      "midiNote": 48,
      "noteName": "C3",
      "velocity": 0.5826771653543307,
      "duration": "24i"
    },
    {
      "time": "1967i",
      "midiNote": 50,
      "noteName": "D3",
      "velocity": 0.6850393700787402,
      "duration": "89i"
    },
    {
      "time": "2063i",
      "midiNote": 50,
      "noteName": "D3",
      "velocity": 0.5905511811023622,
      "duration": "40i"
    },
    {
      "time": "2111i",
      "midiNote": 52,
      "noteName": "E3",
      "velocity": 0.6850393700787402,
      "duration": "96i"
    },
    {
      "time": "2207i",
      "midiNote": 50,
      "noteName": "D3",
      "velocity": 0.5826771653543307,
      "duration": "39i"
    },
    {
      "time": "2255i",
      "midiNote": 48,
      "noteName": "C3",
      "velocity": 0.5905511811023622,
      "duration": "100i"
    },
    {
      "time": "2352i",
      "midiNote": 45,
      "noteName": "A2",
      "velocity": 0.6850393700787402,
      "duration": "37i"
    },
    {
      "time": "2400i",
      "midiNote": 50,
      "noteName": "D3",
      "velocity": 0.6220472440944882,
      "duration": "93i"
    },
    {
      "time": "2496i",
      "midiNote": 48,
      "noteName": "C3",
      "velocity": 0.6062992125984252,
      "duration": "38i"
    },
    {
      "time": "2543i",
      "midiNote": 47,
      "noteName": "B2",
      "velocity": 0.7480314960629921,
      "duration": "44i"
    },
    {
      "time": "2591i",
      "midiNote": 45,
      "noteName": "A2",
      "velocity": 0.6692913385826772,
      "duration": "47i"
    },
    {
      "time": "2639i",
      "midiNote": 50,
      "noteName": "D3",
      "velocity": 0.7322834645669292,
      "duration": "48i"
    },
    {
      "time": "2688i",
      "midiNote": 43,
      "noteName": "G2",
      "velocity": 0.7322834645669292,
      "duration": "164i"
    }
  ],
  "tuba(s)": [
    {
      "time": "0i",
      "midiNote": 38,
      "noteName": "D2",
      "velocity": 0.7952755905511811,
      "duration": "42i"
    },
    {
      "time": "49i",
      "midiNote": 43,
      "noteName": "G2",
      "velocity": 0.5826771653543307,
      "duration": "44i"
    },
    {
      "time": "95i",
      "midiNote": 40,
      "noteName": "E2",
      "velocity": 0.7480314960629921,
      "duration": "41i"
    },
    {
      "time": "144i",
      "midiNote": 36,
      "noteName": "C2",
      "velocity": 0.7952755905511811,
      "duration": "43i"
    },
    {
      "time": "191i",
      "midiNote": 38,
      "noteName": "D2",
      "velocity": 0.7716535433070866,
      "duration": "44i"
    },
    {
      "time": "238i",
      "midiNote": 43,
      "noteName": "G2",
      "velocity": 0.6456692913385826,
      "duration": "44i"
    },
    {
      "time": "286i",
      "midiNote": 42,
      "noteName": "F#2",
      "velocity": 0.7952755905511811,
      "duration": "46i"
    },
    {
      "time": "335i",
      "midiNote": 40,
      "noteName": "E2",
      "velocity": 0.7086614173228346,
      "duration": "40i"
    },
    {
      "time": "382i",
      "midiNote": 38,
      "noteName": "D2",
      "velocity": 0.7086614173228346,
      "duration": "44i"
    },
    {
      "time": "431i",
      "midiNote": 36,
      "noteName": "C2",
      "velocity": 0.7716535433070866,
      "duration": "44i"
    },
    {
      "time": "479i",
      "midiNote": 38,
      "noteName": "D2",
      "velocity": 0.7086614173228346,
      "duration": "41i"
    },
    {
      "time": "506i",
      "midiNote": 36,
      "noteName": "C2",
      "velocity": 0.3543307086614173,
      "duration": "11i"
    },
    {
      "time": "527i",
      "midiNote": 31,
      "noteName": "G1",
      "velocity": 0.8346456692913385,
      "duration": "134i"
    },
    {
      "time": "671i",
      "midiNote": 38,
      "noteName": "D2",
      "velocity": 0.7952755905511811,
      "duration": "46i"
    },
    {
      "time": "720i",
      "midiNote": 43,
      "noteName": "G2",
      "velocity": 0.6692913385826772,
      "duration": "46i"
    },
    {
      "time": "768i",
      "midiNote": 40,
      "noteName": "E2",
      "velocity": 0.7322834645669292,
      "duration": "42i"
    },
    {
      "time": "816i",
      "midiNote": 36,
      "noteName": "C2",
      "velocity": 0.7480314960629921,
      "duration": "44i"
    },
    {
      "time": "864i",
      "midiNote": 38,
      "noteName": "D2",
      "velocity": 0.7322834645669292,
      "duration": "45i"
    },
    {
      "time": "911i",
      "midiNote": 43,
      "noteName": "G2",
      "velocity": 0.6692913385826772,
      "duration": "48i"
    },
    {
      "time": "959i",
      "midiNote": 42,
      "noteName": "F#2",
      "velocity": 0.7952755905511811,
      "duration": "40i"
    },
    {
      "time": "1007i",
      "midiNote": 40,
      "noteName": "E2",
      "velocity": 0.7480314960629921,
      "duration": "47i"
    },
    {
      "time": "1055i",
      "midiNote": 38,
      "noteName": "D2",
      "velocity": 0.7322834645669292,
      "duration": "47i"
    },
    {
      "time": "1103i",
      "midiNote": 36,
      "noteName": "C2",
      "velocity": 0.6692913385826772,
      "duration": "48i"
    },
    {
      "time": "1152i",
      "midiNote": 38,
      "noteName": "D2",
      "velocity": 0.7716535433070866,
      "duration": "45i"
    },
    {
      "time": "1199i",
      "midiNote": 31,
      "noteName": "G1",
      "velocity": 0.7716535433070866,
      "duration": "130i"
    },
    {
      "time": "1344i",
      "midiNote": 31,
      "noteName": "G1",
      "velocity": 0.8110236220472441,
      "duration": "22i"
    },
    {
      "time": "1368i",
      "midiNote": 33,
      "noteName": "A1",
      "velocity": 0.7952755905511811,
      "duration": "18i"
    },
    {
      "time": "1392i",
      "midiNote": 35,
      "noteName": "B1",
      "velocity": 0.7480314960629921,
      "duration": "94i"
    },
    {
      "time": "1488i",
      "midiNote": 36,
      "noteName": "C2",
      "velocity": 0.7480314960629921,
      "duration": "47i"
    },
    {
      "time": "1535i",
      "midiNote": 38,
      "noteName": "D2",
      "velocity": 0.7322834645669292,
      "duration": "88i"
    },
    {
      "time": "1631i",
      "midiNote": 40,
      "noteName": "E2",
      "velocity": 0.7086614173228346,
      "duration": "25i"
    },
    {
      "time": "1655i",
      "midiNote": 42,
      "noteName": "F#2",
      "velocity": 0.7322834645669292,
      "duration": "23i"
    },
    {
      "time": "1680i",
      "midiNote": 43,
      "noteName": "G2",
      "velocity": 0.6850393700787402,
      "duration": "98i"
    },
    {
      "time": "1777i",
      "midiNote": 36,
      "noteName": "C2",
      "velocity": 0.6850393700787402,
      "duration": "42i"
    },
    {
      "time": "1824i",
      "midiNote": 31,
      "noteName": "G1",
      "velocity": 0.8110236220472441,
      "duration": "42i"
    },
    {
      "time": "1872i",
      "midiNote": 33,
      "noteName": "A1",
      "velocity": 0.8110236220472441,
      "duration": "44i"
    },
    {
      "time": "1920i",
      "midiNote": 35,
      "noteName": "B1",
      "velocity": 0.7952755905511811,
      "duration": "22i"
    },
    {
      "time": "1943i",
      "midiNote": 36,
      "noteName": "C2",
      "velocity": 0.7086614173228346,
      "duration": "20i"
    },
    {
      "time": "1968i",
      "midiNote": 38,
      "noteName": "D2",
      "velocity": 0.7952755905511811,
      "duration": "87i"
    },
    {
      "time": "2063i",
      "midiNote": 38,
      "noteName": "D2",
      "velocity": 0.7952755905511811,
      "duration": "43i"
    },
    {
      "time": "2112i",
      "midiNote": 40,
      "noteName": "E2",
      "velocity": 0.7480314960629921,
      "duration": "93i"
    },
    {
      "time": "2207i",
      "midiNote": 38,
      "noteName": "D2",
      "velocity": 0.7716535433070866,
      "duration": "46i"
    },
    {
      "time": "2255i",
      "midiNote": 36,
      "noteName": "C2",
      "velocity": 0.7480314960629921,
      "duration": "99i"
    },
    {
      "time": "2351i",
      "midiNote": 33,
      "noteName": "A1",
      "velocity": 0.7952755905511811,
      "duration": "49i"
    },
    {
      "time": "2400i",
      "midiNote": 38,
      "noteName": "D2",
      "velocity": 0.7716535433070866,
      "duration": "91i"
    },
    {
      "time": "2495i",
      "midiNote": 36,
      "noteName": "C2",
      "velocity": 0.7086614173228346,
      "duration": "41i"
    },
    {
      "time": "2543i",
      "midiNote": 35,
      "noteName": "B1",
      "velocity": 0.7952755905511811,
      "duration": "45i"
    },
    {
      "time": "2591i",
      "midiNote": 33,
      "noteName": "A1",
      "velocity": 0.8346456692913385,
      "duration": "47i"
    },
    {
      "time": "2639i",
      "midiNote": 38,
      "noteName": "D2",
      "velocity": 0.7952755905511811,
      "duration": "45i"
    },
    {
      "time": "2688i",
      "midiNote": 31,
      "noteName": "G1",
      "velocity": 0.8346456692913385,
      "duration": "152i"
    }
  ],
  "strings (hi)": [
    {
      "time": "0i",
      "midiNote": 74,
      "noteName": "D5",
      "velocity": 0.6456692913385826,
      "duration": "44i"
    },
    {
      "time": "1i",
      "midiNote": 62,
      "noteName": "D4",
      "velocity": 0.6456692913385826,
      "duration": "42i"
    },
    {
      "time": "46i",
      "midiNote": 67,
      "noteName": "G4",
      "velocity": 0.6062992125984252,
      "duration": "38i"
    },
    {
      "time": "46i",
      "midiNote": 79,
      "noteName": "G5",
      "velocity": 0.5433070866141733,
      "duration": "41i"
    },
    {
      "time": "94i",
      "midiNote": 67,
      "noteName": "G4",
      "velocity": 0.6220472440944882,
      "duration": "49i"
    },
    {
      "time": "95i",
      "midiNote": 79,
      "noteName": "G5",
      "velocity": 0.5905511811023622,
      "duration": "50i"
    },
    {
      "time": "143i",
      "midiNote": 81,
      "noteName": "A5",
      "velocity": 0.6220472440944882,
      "duration": "25i"
    },
    {
      "time": "143i",
      "midiNote": 69,
      "noteName": "A4",
      "velocity": 0.5826771653543307,
      "duration": "22i"
    },
    {
      "time": "166i",
      "midiNote": 71,
      "noteName": "B4",
      "velocity": 0.49606299212598426,
      "duration": "21i"
    },
    {
      "time": "166i",
      "midiNote": 83,
      "noteName": "B5",
      "velocity": 0.5590551181102362,
      "duration": "25i"
    },
    {
      "time": "189i",
      "midiNote": 72,
      "noteName": "C5",
      "velocity": 0.6141732283464567,
      "duration": "25i"
    },
    {
      "time": "189i",
      "midiNote": 84,
      "noteName": "C6",
      "velocity": 0.5905511811023622,
      "duration": "26i"
    },
    {
      "time": "213i",
      "midiNote": 69,
      "noteName": "A4",
      "velocity": 0.6692913385826772,
      "duration": "26i"
    },
    {
      "time": "213i",
      "midiNote": 81,
      "noteName": "A5",
      "velocity": 0.5826771653543307,
      "duration": "28i"
    },
    {
      "time": "238i",
      "midiNote": 71,
      "noteName": "B4",
      "velocity": 0.5826771653543307,
      "duration": "47i"
    },
    {
      "time": "238i",
      "midiNote": 83,
      "noteName": "B5",
      "velocity": 0.5905511811023622,
      "duration": "46i"
    },
    {
      "time": "286i",
      "midiNote": 81,
      "noteName": "A5",
      "velocity": 0.5826771653543307,
      "duration": "26i"
    },
    {
      "time": "286i",
      "midiNote": 69,
      "noteName": "A4",
      "velocity": 0.5354330708661418,
      "duration": "23i"
    },
    {
      "time": "309i",
      "midiNote": 83,
      "noteName": "B5",
      "velocity": 0.6062992125984252,
      "duration": "25i"
    },
    {
      "time": "309i",
      "midiNote": 71,
      "noteName": "B4",
      "velocity": 0.5590551181102362,
      "duration": "23i"
    },
    {
      "time": "333i",
      "midiNote": 72,
      "noteName": "C5",
      "velocity": 0.5196850393700787,
      "duration": "47i"
    },
    {
      "time": "334i",
      "midiNote": 84,
      "noteName": "C6",
      "velocity": 0.5826771653543307,
      "duration": "47i"
    },
    {
      "time": "380i",
      "midiNote": 83,
      "noteName": "B5",
      "velocity": 0.5669291338582677,
      "duration": "52i"
    },
    {
      "time": "381i",
      "midiNote": 71,
      "noteName": "B4",
      "velocity": 0.5905511811023622,
      "duration": "53i"
    },
    {
      "time": "431i",
      "midiNote": 69,
      "noteName": "A4",
      "velocity": 0.6220472440944882,
      "duration": "19i"
    },
    {
      "time": "431i",
      "midiNote": 81,
      "noteName": "A5",
      "velocity": 0.5905511811023622,
      "duration": "20i"
    },
    {
      "time": "453i",
      "midiNote": 67,
      "noteName": "G4",
      "velocity": 0.5905511811023622,
      "duration": "24i"
    },
    {
      "time": "453i",
      "midiNote": 79,
      "noteName": "G5",
      "velocity": 0.6220472440944882,
      "duration": "24i"
    },
    {
      "time": "477i",
      "midiNote": 69,
      "noteName": "A4",
      "velocity": 0.5905511811023622,
      "duration": "50i"
    },
    {
      "time": "478i",
      "midiNote": 81,
      "noteName": "A5",
      "velocity": 0.5590551181102362,
      "duration": "52i"
    },
    {
      "time": "527i",
      "midiNote": 79,
      "noteName": "G5",
      "velocity": 0.6062992125984252,
      "duration": "128i"
    },
    {
      "time": "527i",
      "midiNote": 67,
      "noteName": "G4",
      "velocity": 0.4645669291338583,
      "duration": "127i"
    },
    {
      "time": "671i",
      "midiNote": 74,
      "noteName": "D5",
      "velocity": 0.5826771653543307,
      "duration": "47i"
    },
    {
      "time": "672i",
      "midiNote": 62,
      "noteName": "D4",
      "velocity": 0.6850393700787402,
      "duration": "46i"
    },
    {
      "time": "719i",
      "midiNote": 79,
      "noteName": "G5",
      "velocity": 0.6456692913385826,
      "duration": "42i"
    },
    {
      "time": "719i",
      "midiNote": 67,
      "noteName": "G4",
      "velocity": 0.6220472440944882,
      "duration": "42i"
    },
    {
      "time": "767i",
      "midiNote": 67,
      "noteName": "G4",
      "velocity": 0.7086614173228346,
      "duration": "47i"
    },
    {
      "time": "767i",
      "midiNote": 79,
      "noteName": "G5",
      "velocity": 0.5905511811023622,
      "duration": "47i"
    },
    {
      "time": "815i",
      "midiNote": 81,
      "noteName": "A5",
      "velocity": 0.6220472440944882,
      "duration": "26i"
    },
    {
      "time": "815i",
      "midiNote": 69,
      "noteName": "A4",
      "velocity": 0.5826771653543307,
      "duration": "23i"
    },
    {
      "time": "837i",
      "midiNote": 71,
      "noteName": "B4",
      "velocity": 0.5196850393700787,
      "duration": "23i"
    },
    {
      "time": "838i",
      "midiNote": 83,
      "noteName": "B5",
      "velocity": 0.6220472440944882,
      "duration": "23i"
    },
    {
      "time": "861i",
      "midiNote": 72,
      "noteName": "C5",
      "velocity": 0.5669291338582677,
      "duration": "24i"
    },
    {
      "time": "861i",
      "midiNote": 84,
      "noteName": "C6",
      "velocity": 0.6220472440944882,
      "duration": "26i"
    },
    {
      "time": "885i",
      "midiNote": 69,
      "noteName": "A4",
      "velocity": 0.6062992125984252,
      "duration": "24i"
    },
    {
      "time": "886i",
      "midiNote": 81,
      "noteName": "A5",
      "velocity": 0.6141732283464567,
      "duration": "27i"
    },
    {
      "time": "911i",
      "midiNote": 71,
      "noteName": "B4",
      "velocity": 0.5433070866141733,
      "duration": "43i"
    },
    {
      "time": "911i",
      "midiNote": 83,
      "noteName": "B5",
      "velocity": 0.5905511811023622,
      "duration": "41i"
    },
    {
      "time": "958i",
      "midiNote": 81,
      "noteName": "A5",
      "velocity": 0.6220472440944882,
      "duration": "26i"
    },
    {
      "time": "958i",
      "midiNote": 69,
      "noteName": "A4",
      "velocity": 0.5669291338582677,
      "duration": "23i"
    },
    {
      "time": "982i",
      "midiNote": 83,
      "noteName": "B5",
      "velocity": 0.6062992125984252,
      "duration": "25i"
    },
    {
      "time": "982i",
      "midiNote": 71,
      "noteName": "B4",
      "velocity": 0.5590551181102362,
      "duration": "24i"
    },
    {
      "time": "1006i",
      "midiNote": 84,
      "noteName": "C6",
      "velocity": 0.6062992125984252,
      "duration": "48i"
    },
    {
      "time": "1006i",
      "midiNote": 72,
      "noteName": "C5",
      "velocity": 0.5354330708661418,
      "duration": "47i"
    },
    {
      "time": "1053i",
      "midiNote": 71,
      "noteName": "B4",
      "velocity": 0.5905511811023622,
      "duration": "50i"
    },
    {
      "time": "1053i",
      "midiNote": 83,
      "noteName": "B5",
      "velocity": 0.6141732283464567,
      "duration": "53i"
    },
    {
      "time": "1103i",
      "midiNote": 69,
      "noteName": "A4",
      "velocity": 0.6692913385826772,
      "duration": "23i"
    },
    {
      "time": "1103i",
      "midiNote": 81,
      "noteName": "A5",
      "velocity": 0.6220472440944882,
      "duration": "23i"
    },
    {
      "time": "1126i",
      "midiNote": 67,
      "noteName": "G4",
      "velocity": 0.5590551181102362,
      "duration": "24i"
    },
    {
      "time": "1126i",
      "midiNote": 79,
      "noteName": "G5",
      "velocity": 0.5669291338582677,
      "duration": "25i"
    },
    {
      "time": "1151i",
      "midiNote": 69,
      "noteName": "A4",
      "velocity": 0.5118110236220472,
      "duration": "50i"
    },
    {
      "time": "1151i",
      "midiNote": 81,
      "noteName": "A5",
      "velocity": 0.6220472440944882,
      "duration": "48i"
    },
    {
      "time": "1199i",
      "midiNote": 79,
      "noteName": "G5",
      "velocity": 0.5826771653543307,
      "duration": "128i"
    },
    {
      "time": "1199i",
      "midiNote": 67,
      "noteName": "G4",
      "velocity": 0.6062992125984252,
      "duration": "127i"
    },
    {
      "time": "1343i",
      "midiNote": 83,
      "noteName": "B5",
      "velocity": 0.6692913385826772,
      "duration": "24i"
    },
    {
      "time": "1344i",
      "midiNote": 71,
      "noteName": "B4",
      "velocity": 0.6141732283464567,
      "duration": "24i"
    },
    {
      "time": "1367i",
      "midiNote": 84,
      "noteName": "C6",
      "velocity": 0.6692913385826772,
      "duration": "24i"
    },
    {
      "time": "1367i",
      "midiNote": 72,
      "noteName": "C5",
      "velocity": 0.5433070866141733,
      "duration": "23i"
    },
    {
      "time": "1391i",
      "midiNote": 74,
      "noteName": "D5",
      "velocity": 0.5905511811023622,
      "duration": "98i"
    },
    {
      "time": "1391i",
      "midiNote": 86,
      "noteName": "D6",
      "velocity": 0.6062992125984252,
      "duration": "100i"
    },
    {
      "time": "1488i",
      "midiNote": 76,
      "noteName": "E5",
      "velocity": 0.5669291338582677,
      "duration": "49i"
    },
    {
      "time": "1488i",
      "midiNote": 88,
      "noteName": "E6",
      "velocity": 0.6141732283464567,
      "duration": "50i"
    },
    {
      "time": "1536i",
      "midiNote": 74,
      "noteName": "D5",
      "velocity": 0.6062992125984252,
      "duration": "97i"
    },
    {
      "time": "1536i",
      "midiNote": 86,
      "noteName": "D6",
      "velocity": 0.5590551181102362,
      "duration": "96i"
    },
    {
      "time": "1631i",
      "midiNote": 84,
      "noteName": "C6",
      "velocity": 0.6692913385826772,
      "duration": "49i"
    },
    {
      "time": "1631i",
      "midiNote": 72,
      "noteName": "C5",
      "velocity": 0.6456692913385826,
      "duration": "48i"
    },
    {
      "time": "1679i",
      "midiNote": 71,
      "noteName": "B4",
      "velocity": 0.6220472440944882,
      "duration": "47i"
    },
    {
      "time": "1679i",
      "midiNote": 83,
      "noteName": "B5",
      "velocity": 0.5826771653543307,
      "duration": "45i"
    },
    {
      "time": "1727i",
      "midiNote": 69,
      "noteName": "A4",
      "velocity": 0.5826771653543307,
      "duration": "23i"
    },
    {
      "time": "1727i",
      "midiNote": 81,
      "noteName": "A5",
      "velocity": 0.6062992125984252,
      "duration": "24i"
    },
    {
      "time": "1750i",
      "midiNote": 83,
      "noteName": "B5",
      "velocity": 0.6141732283464567,
      "duration": "24i"
    },
    {
      "time": "1750i",
      "midiNote": 71,
      "noteName": "B4",
      "velocity": 0.6220472440944882,
      "duration": "23i"
    },
    {
      "time": "1774i",
      "midiNote": 72,
      "noteName": "C5",
      "velocity": 0.6062992125984252,
      "duration": "41i"
    },
    {
      "time": "1775i",
      "midiNote": 84,
      "noteName": "C6",
      "velocity": 0.6692913385826772,
      "duration": "41i"
    },
    {
      "time": "1824i",
      "midiNote": 83,
      "noteName": "B5",
      "velocity": 0.5669291338582677,
      "duration": "52i"
    },
    {
      "time": "1824i",
      "midiNote": 71,
      "noteName": "B4",
      "velocity": 0.6062992125984252,
      "duration": "51i"
    },
    {
      "time": "1872i",
      "midiNote": 69,
      "noteName": "A4",
      "velocity": 0.6692913385826772,
      "duration": "50i"
    },
    {
      "time": "1873i",
      "midiNote": 81,
      "noteName": "A5",
      "velocity": 0.6062992125984252,
      "duration": "46i"
    },
    {
      "time": "1920i",
      "midiNote": 79,
      "noteName": "G5",
      "velocity": 0.5905511811023622,
      "duration": "51i"
    },
    {
      "time": "1920i",
      "midiNote": 67,
      "noteName": "G4",
      "velocity": 0.6850393700787402,
      "duration": "49i"
    },
    {
      "time": "1968i",
      "midiNote": 69,
      "noteName": "A4",
      "velocity": 0.6220472440944882,
      "duration": "83i"
    },
    {
      "time": "1969i",
      "midiNote": 81,
      "noteName": "A5",
      "velocity": 0.5905511811023622,
      "duration": "84i"
    },
    {
      "time": "2063i",
      "midiNote": 74,
      "noteName": "D5",
      "velocity": 0.5905511811023622,
      "duration": "47i"
    },
    {
      "time": "2063i",
      "midiNote": 62,
      "noteName": "D4",
      "velocity": 0.7086614173228346,
      "duration": "50i"
    },
    {
      "time": "2110i",
      "midiNote": 79,
      "noteName": "G5",
      "velocity": 0.5905511811023622,
      "duration": "23i"
    },
    {
      "time": "2110i",
      "midiNote": 67,
      "noteName": "G4",
      "velocity": 0.6850393700787402,
      "duration": "27i"
    },
    {
      "time": "2135i",
      "midiNote": 78,
      "noteName": "F#5",
      "velocity": 0.6141732283464567,
      "duration": "22i"
    },
    {
      "time": "2135i",
      "midiNote": 66,
      "noteName": "F#4",
      "velocity": 0.7322834645669292,
      "duration": "23i"
    },
    {
      "time": "2157i",
      "midiNote": 67,
      "noteName": "G4",
      "velocity": 0.6692913385826772,
      "duration": "25i"
    },
    {
      "time": "2158i",
      "midiNote": 79,
      "noteName": "G5",
      "velocity": 0.6062992125984252,
      "duration": "27i"
    },
    {
      "time": "2182i",
      "midiNote": 69,
      "noteName": "A4",
      "velocity": 0.6692913385826772,
      "duration": "25i"
    },
    {
      "time": "2182i",
      "midiNote": 81,
      "noteName": "A5",
      "velocity": 0.6692913385826772,
      "duration": "27i"
    },
    {
      "time": "2207i",
      "midiNote": 71,
      "noteName": "B4",
      "velocity": 0.5196850393700787,
      "duration": "51i"
    },
    {
      "time": "2208i",
      "midiNote": 83,
      "noteName": "B5",
      "velocity": 0.5669291338582677,
      "duration": "49i"
    },
    {
      "time": "2255i",
      "midiNote": 81,
      "noteName": "A5",
      "velocity": 0.5905511811023622,
      "duration": "96i"
    },
    {
      "time": "2256i",
      "midiNote": 69,
      "noteName": "A4",
      "velocity": 0.5669291338582677,
      "duration": "96i"
    },
    {
      "time": "2351i",
      "midiNote": 67,
      "noteName": "G4",
      "velocity": 0.7086614173228346,
      "duration": "48i"
    },
    {
      "time": "2351i",
      "midiNote": 79,
      "noteName": "G5",
      "velocity": 0.5905511811023622,
      "duration": "48i"
    },
    {
      "time": "2399i",
      "midiNote": 66,
      "noteName": "F#4",
      "velocity": 0.7086614173228346,
      "duration": "52i"
    },
    {
      "time": "2399i",
      "midiNote": 78,
      "noteName": "F#5",
      "velocity": 0.6062992125984252,
      "duration": "50i"
    },
    {
      "time": "2447i",
      "midiNote": 74,
      "noteName": "D5",
      "velocity": 0.5905511811023622,
      "duration": "46i"
    },
    {
      "time": "2448i",
      "midiNote": 62,
      "noteName": "D4",
      "velocity": 0.6850393700787402,
      "duration": "45i"
    },
    {
      "time": "2496i",
      "midiNote": 64,
      "noteName": "E4",
      "velocity": 0.7480314960629921,
      "duration": "23i"
    },
    {
      "time": "2496i",
      "midiNote": 76,
      "noteName": "E5",
      "velocity": 0.6062992125984252,
      "duration": "23i"
    },
    {
      "time": "2518i",
      "midiNote": 78,
      "noteName": "F#5",
      "velocity": 0.6141732283464567,
      "duration": "25i"
    },
    {
      "time": "2519i",
      "midiNote": 66,
      "noteName": "F#4",
      "velocity": 0.6062992125984252,
      "duration": "26i"
    },
    {
      "time": "2542i",
      "midiNote": 79,
      "noteName": "G5",
      "velocity": 0.6850393700787402,
      "duration": "41i"
    },
    {
      "time": "2543i",
      "midiNote": 67,
      "noteName": "G4",
      "velocity": 0.6850393700787402,
      "duration": "40i"
    },
    {
      "time": "2591i",
      "midiNote": 67,
      "noteName": "G4",
      "velocity": 0.6220472440944882,
      "duration": "45i"
    },
    {
      "time": "2591i",
      "midiNote": 79,
      "noteName": "G5",
      "velocity": 0.5826771653543307,
      "duration": "50i"
    },
    {
      "time": "2639i",
      "midiNote": 66,
      "noteName": "F#4",
      "velocity": 0.5826771653543307,
      "duration": "52i"
    },
    {
      "time": "2639i",
      "midiNote": 78,
      "noteName": "F#5",
      "velocity": 0.6141732283464567,
      "duration": "50i"
    },
    {
      "time": "2687i",
      "midiNote": 79,
      "noteName": "G5",
      "velocity": 0.6141732283464567,
      "duration": "168i"
    },
    {
      "time": "2688i",
      "midiNote": 67,
      "noteName": "G4",
      "velocity": 0.6692913385826772,
      "duration": "168i"
    }
  ],
  "strings (mid)": [
    {
      "time": "0i",
      "midiNote": 62,
      "noteName": "D4",
      "velocity": 0.5826771653543307,
      "duration": "35i"
    },
    {
      "time": "47i",
      "midiNote": 62,
      "noteName": "D4",
      "velocity": 0.6062992125984252,
      "duration": "47i"
    },
    {
      "time": "47i",
      "midiNote": 59,
      "noteName": "B3",
      "velocity": 0.5590551181102362,
      "duration": "38i"
    },
    {
      "time": "95i",
      "midiNote": 59,
      "noteName": "B3",
      "velocity": 0.48031496062992124,
      "duration": "52i"
    },
    {
      "time": "95i",
      "midiNote": 64,
      "noteName": "E4",
      "velocity": 0.5354330708661418,
      "duration": "36i"
    },
    {
      "time": "144i",
      "midiNote": 64,
      "noteName": "E4",
      "velocity": 0.5354330708661418,
      "duration": "43i"
    },
    {
      "time": "191i",
      "midiNote": 66,
      "noteName": "F#4",
      "velocity": 0.5433070866141733,
      "duration": "44i"
    },
    {
      "time": "192i",
      "midiNote": 62,
      "noteName": "D4",
      "velocity": 0.5118110236220472,
      "duration": "40i"
    },
    {
      "time": "240i",
      "midiNote": 67,
      "noteName": "G4",
      "velocity": 0.6456692913385826,
      "duration": "49i"
    },
    {
      "time": "240i",
      "midiNote": 62,
      "noteName": "D4",
      "velocity": 0.5354330708661418,
      "duration": "36i"
    },
    {
      "time": "286i",
      "midiNote": 62,
      "noteName": "D4",
      "velocity": 0.6220472440944882,
      "duration": "44i"
    },
    {
      "time": "334i",
      "midiNote": 60,
      "noteName": "C4",
      "velocity": 0.41732283464566927,
      "duration": "39i"
    },
    {
      "time": "334i",
      "midiNote": 67,
      "noteName": "G4",
      "velocity": 0.5590551181102362,
      "duration": "35i"
    },
    {
      "time": "381i",
      "midiNote": 62,
      "noteName": "D4",
      "velocity": 0.5118110236220472,
      "duration": "44i"
    },
    {
      "time": "382i",
      "midiNote": 67,
      "noteName": "G4",
      "velocity": 0.5433070866141733,
      "duration": "43i"
    },
    {
      "time": "429i",
      "midiNote": 64,
      "noteName": "E4",
      "velocity": 0.6141732283464567,
      "duration": "45i"
    },
    {
      "time": "478i",
      "midiNote": 62,
      "noteName": "D4",
      "velocity": 0.5826771653543307,
      "duration": "22i"
    },
    {
      "time": "479i",
      "midiNote": 66,
      "noteName": "F#4",
      "velocity": 0.6692913385826772,
      "duration": "47i"
    },
    {
      "time": "502i",
      "midiNote": 60,
      "noteName": "C4",
      "velocity": 0.5590551181102362,
      "duration": "23i"
    },
    {
      "time": "528i",
      "midiNote": 62,
      "noteName": "D4",
      "velocity": 0.5669291338582677,
      "duration": "128i"
    },
    {
      "time": "528i",
      "midiNote": 59,
      "noteName": "B3",
      "velocity": 0.5590551181102362,
      "duration": "126i"
    },
    {
      "time": "673i",
      "midiNote": 62,
      "noteName": "D4",
      "velocity": 0.3543307086614173,
      "duration": "35i"
    },
    {
      "time": "719i",
      "midiNote": 62,
      "noteName": "D4",
      "velocity": 0.5826771653543307,
      "duration": "45i"
    },
    {
      "time": "719i",
      "midiNote": 59,
      "noteName": "B3",
      "velocity": 0.5354330708661418,
      "duration": "41i"
    },
    {
      "time": "768i",
      "midiNote": 64,
      "noteName": "E4",
      "velocity": 0.5826771653543307,
      "duration": "37i"
    },
    {
      "time": "768i",
      "midiNote": 59,
      "noteName": "B3",
      "velocity": 0.48031496062992124,
      "duration": "46i"
    },
    {
      "time": "815i",
      "midiNote": 64,
      "noteName": "E4",
      "velocity": 0.5354330708661418,
      "duration": "44i"
    },
    {
      "time": "862i",
      "midiNote": 66,
      "noteName": "F#4",
      "velocity": 0.5669291338582677,
      "duration": "45i"
    },
    {
      "time": "863i",
      "midiNote": 62,
      "noteName": "D4",
      "velocity": 0.4330708661417323,
      "duration": "39i"
    },
    {
      "time": "911i",
      "midiNote": 67,
      "noteName": "G4",
      "velocity": 0.48031496062992124,
      "duration": "49i"
    },
    {
      "time": "911i",
      "midiNote": 62,
      "noteName": "D4",
      "velocity": 0.6141732283464567,
      "duration": "38i"
    },
    {
      "time": "959i",
      "midiNote": 62,
      "noteName": "D4",
      "velocity": 0.5433070866141733,
      "duration": "46i"
    },
    {
      "time": "1007i",
      "midiNote": 60,
      "noteName": "C4",
      "velocity": 0.5433070866141733,
      "duration": "50i"
    },
    {
      "time": "1008i",
      "midiNote": 67,
      "noteName": "G4",
      "velocity": 0.5590551181102362,
      "duration": "35i"
    },
    {
      "time": "1055i",
      "midiNote": 62,
      "noteName": "D4",
      "velocity": 0.5590551181102362,
      "duration": "46i"
    },
    {
      "time": "1055i",
      "midiNote": 67,
      "noteName": "G4",
      "velocity": 0.5433070866141733,
      "duration": "46i"
    },
    {
      "time": "1104i",
      "midiNote": 64,
      "noteName": "E4",
      "velocity": 0.5905511811023622,
      "duration": "40i"
    },
    {
      "time": "1151i",
      "midiNote": 66,
      "noteName": "F#4",
      "velocity": 0.5669291338582677,
      "duration": "49i"
    },
    {
      "time": "1151i",
      "midiNote": 62,
      "noteName": "D4",
      "velocity": 0.5826771653543307,
      "duration": "23i"
    },
    {
      "time": "1175i",
      "midiNote": 60,
      "noteName": "C4",
      "velocity": 0.5354330708661418,
      "duration": "24i"
    },
    {
      "time": "1200i",
      "midiNote": 59,
      "noteName": "B3",
      "velocity": 0.44881889763779526,
      "duration": "114i"
    },
    {
      "time": "1200i",
      "midiNote": 62,
      "noteName": "D4",
      "velocity": 0.6062992125984252,
      "duration": "114i"
    },
    {
      "time": "1345i",
      "midiNote": 67,
      "noteName": "G4",
      "velocity": 0.5905511811023622,
      "duration": "33i"
    },
    {
      "time": "1392i",
      "midiNote": 67,
      "noteName": "G4",
      "velocity": 0.5590551181102362,
      "duration": "83i"
    },
    {
      "time": "1487i",
      "midiNote": 67,
      "noteName": "G4",
      "velocity": 0.5196850393700787,
      "duration": "43i"
    },
    {
      "time": "1487i",
      "midiNote": 72,
      "noteName": "C5",
      "velocity": 0.5433070866141733,
      "duration": "45i"
    },
    {
      "time": "1535i",
      "midiNote": 66,
      "noteName": "F#4",
      "velocity": 0.5118110236220472,
      "duration": "91i"
    },
    {
      "time": "1535i",
      "midiNote": 69,
      "noteName": "A4",
      "velocity": 0.5354330708661418,
      "duration": "81i"
    },
    {
      "time": "1632i",
      "midiNote": 69,
      "noteName": "A4",
      "velocity": 0.5354330708661418,
      "duration": "40i"
    },
    {
      "time": "1632i",
      "midiNote": 62,
      "noteName": "D4",
      "velocity": 0.5118110236220472,
      "duration": "39i"
    },
    {
      "time": "1681i",
      "midiNote": 67,
      "noteName": "G4",
      "velocity": 0.6456692913385826,
      "duration": "74i"
    },
    {
      "time": "1681i",
      "midiNote": 62,
      "noteName": "D4",
      "velocity": 0.5669291338582677,
      "duration": "72i"
    },
    {
      "time": "1775i",
      "midiNote": 67,
      "noteName": "G4",
      "velocity": 0.5826771653543307,
      "duration": "34i"
    },
    {
      "time": "1775i",
      "midiNote": 64,
      "noteName": "E4",
      "velocity": 0.5196850393700787,
      "duration": "39i"
    },
    {
      "time": "1824i",
      "midiNote": 67,
      "noteName": "G4",
      "velocity": 0.5118110236220472,
      "duration": "48i"
    },
    {
      "time": "1824i",
      "midiNote": 62,
      "noteName": "D4",
      "velocity": 0.5354330708661418,
      "duration": "30i"
    },
    {
      "time": "1871i",
      "midiNote": 60,
      "noteName": "C4",
      "velocity": 0.5354330708661418,
      "duration": "52i"
    },
    {
      "time": "1871i",
      "midiNote": 64,
      "noteName": "E4",
      "velocity": 0.5433070866141733,
      "duration": "47i"
    },
    {
      "time": "1920i",
      "midiNote": 62,
      "noteName": "D4",
      "velocity": 0.6062992125984252,
      "duration": "39i"
    },
    {
      "time": "1968i",
      "midiNote": 66,
      "noteName": "F#4",
      "velocity": 0.6062992125984252,
      "duration": "88i"
    },
    {
      "time": "1968i",
      "midiNote": 62,
      "noteName": "D4",
      "velocity": 0.5433070866141733,
      "duration": "85i"
    },
    {
      "time": "2065i",
      "midiNote": 62,
      "noteName": "D4",
      "velocity": 0.5826771653543307,
      "duration": "42i"
    },
    {
      "time": "2111i",
      "midiNote": 64,
      "noteName": "E4",
      "velocity": 0.5433070866141733,
      "duration": "87i"
    },
    {
      "time": "2111i",
      "midiNote": 59,
      "noteName": "B3",
      "velocity": 0.48031496062992124,
      "duration": "82i"
    },
    {
      "time": "2207i",
      "midiNote": 66,
      "noteName": "F#4",
      "velocity": 0.5118110236220472,
      "duration": "47i"
    },
    {
      "time": "2208i",
      "midiNote": 59,
      "noteName": "B3",
      "velocity": 0.5590551181102362,
      "duration": "31i"
    },
    {
      "time": "2255i",
      "midiNote": 64,
      "noteName": "E4",
      "velocity": 0.5354330708661418,
      "duration": "84i"
    },
    {
      "time": "2256i",
      "midiNote": 60,
      "noteName": "C4",
      "velocity": 0.41732283464566927,
      "duration": "81i"
    },
    {
      "time": "2351i",
      "midiNote": 64,
      "noteName": "E4",
      "velocity": 0.5118110236220472,
      "duration": "50i"
    },
    {
      "time": "2352i",
      "midiNote": 60,
      "noteName": "C4",
      "velocity": 0.44881889763779526,
      "duration": "31i"
    },
    {
      "time": "2400i",
      "midiNote": 57,
      "noteName": "A3",
      "velocity": 0.4015748031496063,
      "duration": "34i"
    },
    {
      "time": "2401i",
      "midiNote": 62,
      "noteName": "D4",
      "velocity": 0.5826771653543307,
      "duration": "43i"
    },
    {
      "time": "2447i",
      "midiNote": 54,
      "noteName": "F#3",
      "velocity": 0.5826771653543307,
      "duration": "49i"
    },
    {
      "time": "2448i",
      "midiNote": 57,
      "noteName": "A3",
      "velocity": 0.5354330708661418,
      "duration": "37i"
    },
    {
      "time": "2496i",
      "midiNote": 62,
      "noteName": "D4",
      "velocity": 0.5826771653543307,
      "duration": "34i"
    },
    {
      "time": "2496i",
      "midiNote": 57,
      "noteName": "A3",
      "velocity": 0.5669291338582677,
      "duration": "37i"
    },
    {
      "time": "2544i",
      "midiNote": 62,
      "noteName": "D4",
      "velocity": 0.5590551181102362,
      "duration": "39i"
    },
    {
      "time": "2544i",
      "midiNote": 55,
      "noteName": "G3",
      "velocity": 0.3858267716535433,
      "duration": "43i"
    },
    {
      "time": "2591i",
      "midiNote": 60,
      "noteName": "C4",
      "velocity": 0.6456692913385826,
      "duration": "42i"
    },
    {
      "time": "2592i",
      "midiNote": 64,
      "noteName": "E4",
      "velocity": 0.5433070866141733,
      "duration": "48i"
    },
    {
      "time": "2639i",
      "midiNote": 57,
      "noteName": "A3",
      "velocity": 0.5826771653543307,
      "duration": "50i"
    },
    {
      "time": "2639i",
      "midiNote": 62,
      "noteName": "D4",
      "velocity": 0.6456692913385826,
      "duration": "38i"
    },
    {
      "time": "2688i",
      "midiNote": 62,
      "noteName": "D4",
      "velocity": 0.5590551181102362,
      "duration": "169i"
    },
    {
      "time": "2688i",
      "midiNote": 59,
      "noteName": "B3",
      "velocity": 0.5669291338582677,
      "duration": "167i"
    }
  ],
  "strings (bass)": [
    {
      "time": "0i",
      "midiNote": 38,
      "noteName": "D2",
      "velocity": 0.6456692913385826,
      "duration": "52i"
    },
    {
      "time": "49i",
      "midiNote": 43,
      "noteName": "G2",
      "velocity": 0.5669291338582677,
      "duration": "47i"
    },
    {
      "time": "95i",
      "midiNote": 40,
      "noteName": "E2",
      "velocity": 0.6850393700787402,
      "duration": "48i"
    },
    {
      "time": "144i",
      "midiNote": 36,
      "noteName": "C2",
      "velocity": 0.5826771653543307,
      "duration": "49i"
    },
    {
      "time": "192i",
      "midiNote": 38,
      "noteName": "D2",
      "velocity": 0.6456692913385826,
      "duration": "47i"
    },
    {
      "time": "239i",
      "midiNote": 43,
      "noteName": "G2",
      "velocity": 0.6062992125984252,
      "duration": "47i"
    },
    {
      "time": "287i",
      "midiNote": 42,
      "noteName": "F#2",
      "velocity": 0.7086614173228346,
      "duration": "46i"
    },
    {
      "time": "334i",
      "midiNote": 40,
      "noteName": "E2",
      "velocity": 0.5826771653543307,
      "duration": "47i"
    },
    {
      "time": "383i",
      "midiNote": 38,
      "noteName": "D2",
      "velocity": 0.6220472440944882,
      "duration": "47i"
    },
    {
      "time": "430i",
      "midiNote": 36,
      "noteName": "C2",
      "velocity": 0.6456692913385826,
      "duration": "50i"
    },
    {
      "time": "479i",
      "midiNote": 38,
      "noteName": "D2",
      "velocity": 0.6850393700787402,
      "duration": "48i"
    },
    {
      "time": "527i",
      "midiNote": 31,
      "noteName": "G1",
      "velocity": 0.6692913385826772,
      "duration": "119i"
    },
    {
      "time": "672i",
      "midiNote": 38,
      "noteName": "D2",
      "velocity": 0.7480314960629921,
      "duration": "47i"
    },
    {
      "time": "719i",
      "midiNote": 43,
      "noteName": "G2",
      "velocity": 0.6141732283464567,
      "duration": "48i"
    },
    {
      "time": "767i",
      "midiNote": 40,
      "noteName": "E2",
      "velocity": 0.7086614173228346,
      "duration": "49i"
    },
    {
      "time": "814i",
      "midiNote": 36,
      "noteName": "C2",
      "velocity": 0.6850393700787402,
      "duration": "46i"
    },
    {
      "time": "862i",
      "midiNote": 38,
      "noteName": "D2",
      "velocity": 0.7086614173228346,
      "duration": "48i"
    },
    {
      "time": "911i",
      "midiNote": 43,
      "noteName": "G2",
      "velocity": 0.6220472440944882,
      "duration": "46i"
    },
    {
      "time": "958i",
      "midiNote": 42,
      "noteName": "F#2",
      "velocity": 0.7480314960629921,
      "duration": "51i"
    },
    {
      "time": "1007i",
      "midiNote": 40,
      "noteName": "E2",
      "velocity": 0.6220472440944882,
      "duration": "45i"
    },
    {
      "time": "1054i",
      "midiNote": 38,
      "noteName": "D2",
      "velocity": 0.6692913385826772,
      "duration": "48i"
    },
    {
      "time": "1102i",
      "midiNote": 36,
      "noteName": "C2",
      "velocity": 0.5905511811023622,
      "duration": "52i"
    },
    {
      "time": "1151i",
      "midiNote": 38,
      "noteName": "D2",
      "velocity": 0.7086614173228346,
      "duration": "50i"
    },
    {
      "time": "1200i",
      "midiNote": 31,
      "noteName": "G1",
      "velocity": 0.7086614173228346,
      "duration": "117i"
    },
    {
      "time": "1342i",
      "midiNote": 31,
      "noteName": "G1",
      "velocity": 0.7952755905511811,
      "duration": "23i"
    },
    {
      "time": "1367i",
      "midiNote": 33,
      "noteName": "A1",
      "velocity": 0.7480314960629921,
      "duration": "25i"
    },
    {
      "time": "1391i",
      "midiNote": 35,
      "noteName": "B1",
      "velocity": 0.7480314960629921,
      "duration": "95i"
    },
    {
      "time": "1488i",
      "midiNote": 36,
      "noteName": "C2",
      "velocity": 0.6062992125984252,
      "duration": "48i"
    },
    {
      "time": "1535i",
      "midiNote": 38,
      "noteName": "D2",
      "velocity": 0.6850393700787402,
      "duration": "76i"
    },
    {
      "time": "1630i",
      "midiNote": 40,
      "noteName": "E2",
      "velocity": 0.7480314960629921,
      "duration": "23i"
    },
    {
      "time": "1654i",
      "midiNote": 42,
      "noteName": "F#2",
      "velocity": 0.7716535433070866,
      "duration": "27i"
    },
    {
      "time": "1679i",
      "midiNote": 43,
      "noteName": "G2",
      "velocity": 0.6692913385826772,
      "duration": "95i"
    },
    {
      "time": "1775i",
      "midiNote": 36,
      "noteName": "C2",
      "velocity": 0.7086614173228346,
      "duration": "47i"
    },
    {
      "time": "1823i",
      "midiNote": 31,
      "noteName": "G1",
      "velocity": 0.7716535433070866,
      "duration": "44i"
    },
    {
      "time": "1870i",
      "midiNote": 33,
      "noteName": "A1",
      "velocity": 0.7952755905511811,
      "duration": "49i"
    },
    {
      "time": "1919i",
      "midiNote": 35,
      "noteName": "B1",
      "velocity": 0.7716535433070866,
      "duration": "23i"
    },
    {
      "time": "1943i",
      "midiNote": 36,
      "noteName": "C2",
      "velocity": 0.6062992125984252,
      "duration": "25i"
    },
    {
      "time": "1968i",
      "midiNote": 38,
      "noteName": "D2",
      "velocity": 0.7716535433070866,
      "duration": "86i"
    },
    {
      "time": "2065i",
      "midiNote": 38,
      "noteName": "D2",
      "velocity": 0.6456692913385826,
      "duration": "47i"
    },
    {
      "time": "2112i",
      "midiNote": 40,
      "noteName": "E2",
      "velocity": 0.7480314960629921,
      "duration": "95i"
    },
    {
      "time": "2208i",
      "midiNote": 38,
      "noteName": "D2",
      "velocity": 0.7952755905511811,
      "duration": "45i"
    },
    {
      "time": "2255i",
      "midiNote": 36,
      "noteName": "C2",
      "velocity": 0.6850393700787402,
      "duration": "89i"
    },
    {
      "time": "2351i",
      "midiNote": 33,
      "noteName": "A1",
      "velocity": 0.7480314960629921,
      "duration": "49i"
    },
    {
      "time": "2399i",
      "midiNote": 38,
      "noteName": "D2",
      "velocity": 0.7480314960629921,
      "duration": "96i"
    },
    {
      "time": "2495i",
      "midiNote": 36,
      "noteName": "C2",
      "velocity": 0.6062992125984252,
      "duration": "50i"
    },
    {
      "time": "2544i",
      "midiNote": 35,
      "noteName": "B1",
      "velocity": 0.7480314960629921,
      "duration": "50i"
    },
    {
      "time": "2591i",
      "midiNote": 33,
      "noteName": "A1",
      "velocity": 0.7480314960629921,
      "duration": "44i"
    },
    {
      "time": "2640i",
      "midiNote": 38,
      "noteName": "D2",
      "velocity": 0.7716535433070866,
      "duration": "50i"
    },
    {
      "time": "2688i",
      "midiNote": 31,
      "noteName": "G1",
      "velocity": 0.7716535433070866,
      "duration": "171i"
    }
  ],
  "timpani": [
    {
      "time": "0i",
      "midiNote": 50,
      "noteName": "D3",
      "velocity": 0.8110236220472441,
      "duration": "28i"
    },
    {
      "time": "48i",
      "midiNote": 43,
      "noteName": "G2",
      "velocity": 0.8740157480314961,
      "duration": "92i"
    },
    {
      "time": "479i",
      "midiNote": 50,
      "noteName": "D3",
      "velocity": 0.8346456692913385,
      "duration": "33i"
    },
    {
      "time": "527i",
      "midiNote": 43,
      "noteName": "G2",
      "velocity": 0.937007874015748,
      "duration": "17i"
    },
    {
      "time": "554i",
      "midiNote": 43,
      "noteName": "G2",
      "velocity": 0.4645669291338583,
      "duration": "6i"
    },
    {
      "time": "562i",
      "midiNote": 43,
      "noteName": "G2",
      "velocity": 0.25984251968503935,
      "duration": "5i"
    },
    {
      "time": "570i",
      "midiNote": 43,
      "noteName": "G2",
      "velocity": 0.48031496062992124,
      "duration": "4i"
    },
    {
      "time": "577i",
      "midiNote": 43,
      "noteName": "G2",
      "velocity": 0.5826771653543307,
      "duration": "4i"
    },
    {
      "time": "584i",
      "midiNote": 43,
      "noteName": "G2",
      "velocity": 0.5669291338582677,
      "duration": "4i"
    },
    {
      "time": "591i",
      "midiNote": 43,
      "noteName": "G2",
      "velocity": 0.6062992125984252,
      "duration": "4i"
    },
    {
      "time": "597i",
      "midiNote": 43,
      "noteName": "G2",
      "velocity": 0.6456692913385826,
      "duration": "4i"
    },
    {
      "time": "603i",
      "midiNote": 43,
      "noteName": "G2",
      "velocity": 0.8110236220472441,
      "duration": "5i"
    },
    {
      "time": "610i",
      "midiNote": 43,
      "noteName": "G2",
      "velocity": 0.8740157480314961,
      "duration": "4i"
    },
    {
      "time": "616i",
      "midiNote": 43,
      "noteName": "G2",
      "velocity": 0.905511811023622,
      "duration": "6i"
    },
    {
      "time": "622i",
      "midiNote": 43,
      "noteName": "G2",
      "velocity": 1,
      "duration": "29i"
    },
    {
      "time": "1152i",
      "midiNote": 50,
      "noteName": "D3",
      "velocity": 0.937007874015748,
      "duration": "38i"
    },
    {
      "time": "1200i",
      "midiNote": 43,
      "noteName": "G2",
      "velocity": 1,
      "duration": "38i"
    },
    {
      "time": "1241i",
      "midiNote": 43,
      "noteName": "G2",
      "velocity": 0.3700787401574803,
      "duration": "4i"
    },
    {
      "time": "1247i",
      "midiNote": 43,
      "noteName": "G2",
      "velocity": 0.3543307086614173,
      "duration": "6i"
    },
    {
      "time": "1254i",
      "midiNote": 43,
      "noteName": "G2",
      "velocity": 0.5118110236220472,
      "duration": "4i"
    },
    {
      "time": "1261i",
      "midiNote": 43,
      "noteName": "G2",
      "velocity": 0.5669291338582677,
      "duration": "4i"
    },
    {
      "time": "1267i",
      "midiNote": 43,
      "noteName": "G2",
      "velocity": 0.6692913385826772,
      "duration": "4i"
    },
    {
      "time": "1272i",
      "midiNote": 43,
      "noteName": "G2",
      "velocity": 0.6850393700787402,
      "duration": "4i"
    },
    {
      "time": "1278i",
      "midiNote": 43,
      "noteName": "G2",
      "velocity": 0.8346456692913385,
      "duration": "4i"
    },
    {
      "time": "1283i",
      "midiNote": 43,
      "noteName": "G2",
      "velocity": 0.937007874015748,
      "duration": "4i"
    },
    {
      "time": "1289i",
      "midiNote": 43,
      "noteName": "G2",
      "velocity": 1,
      "duration": "48i"
    },
    {
      "time": "1919i",
      "midiNote": 43,
      "noteName": "G2",
      "velocity": 0.8110236220472441,
      "duration": "6i"
    },
    {
      "time": "1943i",
      "midiNote": 43,
      "noteName": "G2",
      "velocity": 0.8740157480314961,
      "duration": "6i"
    },
    {
      "time": "1968i",
      "midiNote": 50,
      "noteName": "D3",
      "velocity": 1,
      "duration": "19i"
    },
    {
      "time": "1991i",
      "midiNote": 50,
      "noteName": "D3",
      "velocity": 0.7086614173228346,
      "duration": "3i"
    },
    {
      "time": "2000i",
      "midiNote": 50,
      "noteName": "D3",
      "velocity": 0.7716535433070866,
      "duration": "3i"
    },
    {
      "time": "2007i",
      "midiNote": 50,
      "noteName": "D3",
      "velocity": 0.7322834645669292,
      "duration": "3i"
    },
    {
      "time": "2016i",
      "midiNote": 50,
      "noteName": "D3",
      "velocity": 1,
      "duration": "41i"
    },
    {
      "time": "2640i",
      "midiNote": 50,
      "noteName": "D3",
      "velocity": 0.968503937007874,
      "duration": "29i"
    },
    {
      "time": "2688i",
      "midiNote": 43,
      "noteName": "G2",
      "velocity": 1,
      "duration": "38i"
    },
    {
      "time": "2735i",
      "midiNote": 43,
      "noteName": "G2",
      "velocity": 0.5826771653543307,
      "duration": "5i"
    },
    {
      "time": "2743i",
      "midiNote": 43,
      "noteName": "G2",
      "velocity": 0.6692913385826772,
      "duration": "4i"
    },
    {
      "time": "2750i",
      "midiNote": 43,
      "noteName": "G2",
      "velocity": 0.7322834645669292,
      "duration": "4i"
    },
    {
      "time": "2757i",
      "midiNote": 43,
      "noteName": "G2",
      "velocity": 0.7086614173228346,
      "duration": "4i"
    },
    {
      "time": "2763i",
      "midiNote": 43,
      "noteName": "G2",
      "velocity": 0.8582677165354331,
      "duration": "4i"
    },
    {
      "time": "2769i",
      "midiNote": 43,
      "noteName": "G2",
      "velocity": 0.8740157480314961,
      "duration": "4i"
    },
    {
      "time": "2775i",
      "midiNote": 43,
      "noteName": "G2",
      "velocity": 0.968503937007874,
      "duration": "4i"
    },
    {
      "time": "2781i",
      "midiNote": 43,
      "noteName": "G2",
      "velocity": 0.937007874015748,
      "duration": "5i"
    },
    {
      "time": "2786i",
      "midiNote": 43,
      "noteName": "G2",
      "velocity": 0.937007874015748,
      "duration": "3i"
    },
    {
      "time": "2791i",
      "midiNote": 43,
      "noteName": "G2",
      "velocity": 0.905511811023622,
      "duration": "5i"
    },
    {
      "time": "2796i",
      "midiNote": 43,
      "noteName": "G2",
      "velocity": 0.937007874015748,
      "duration": "3i"
    },
    {
      "time": "2803i",
      "midiNote": 43,
      "noteName": "G2",
      "velocity": 0.8740157480314961,
      "duration": "4i"
    },
    {
      "time": "2808i",
      "midiNote": 43,
      "noteName": "G2",
      "velocity": 0.8582677165354331,
      "duration": "3i"
    },
    {
      "time": "2813i",
      "midiNote": 43,
      "noteName": "G2",
      "velocity": 0.8346456692913385,
      "duration": "4i"
    },
    {
      "time": "2820i",
      "midiNote": 43,
      "noteName": "G2",
      "velocity": 0.968503937007874,
      "duration": "3i"
    },
    {
      "time": "2824i",
      "midiNote": 43,
      "noteName": "G2",
      "velocity": 1,
      "duration": "40i"
    }
  ],
  "cymbals": [
    {
      "time": "48i",
      "midiNote": 49,
      "noteName": "C#3",
      "velocity": 0.6062992125984252,
      "duration": "80i"
    },
    {
      "time": "49i",
      "midiNote": 57,
      "noteName": "A3",
      "velocity": 0.5826771653543307,
      "duration": "80i"
    },
    {
      "time": "529i",
      "midiNote": 49,
      "noteName": "C#3",
      "velocity": 0.7716535433070866,
      "duration": "52i"
    },
    {
      "time": "529i",
      "midiNote": 57,
      "noteName": "A3",
      "velocity": 0.6692913385826772,
      "duration": "54i"
    },
    {
      "time": "1200i",
      "midiNote": 49,
      "noteName": "C#3",
      "velocity": 0.8110236220472441,
      "duration": "51i"
    },
    {
      "time": "1200i",
      "midiNote": 57,
      "noteName": "A3",
      "velocity": 0.6456692913385826,
      "duration": "53i"
    },
    {
      "time": "1968i",
      "midiNote": 49,
      "noteName": "C#3",
      "velocity": 0.7952755905511811,
      "duration": "63i"
    },
    {
      "time": "1968i",
      "midiNote": 57,
      "noteName": "A3",
      "velocity": 0.6220472440944882,
      "duration": "63i"
    },
    {
      "time": "2688i",
      "midiNote": 49,
      "noteName": "C#3",
      "velocity": 0.7952755905511811,
      "duration": "51i"
    },
    {
      "time": "2689i",
      "midiNote": 57,
      "noteName": "A3",
      "velocity": 0.6692913385826772,
      "duration": "53i"
    }
  ]
}
