var germany = {
  "trumpet(s)": [
    {
      "time": "0i",
      "midiNote": 63,
      "noteName": "D#4",
      "velocity": 0.7874015748031497,
      "duration": "69i"
    },
    {
      "time": "71i",
      "midiNote": 65,
      "noteName": "F4",
      "velocity": 0.7086614173228346,
      "duration": "17i"
    },
    {
      "time": "95i",
      "midiNote": 67,
      "noteName": "G4",
      "velocity": 0.7716535433070866,
      "duration": "40i"
    },
    {
      "time": "142i",
      "midiNote": 65,
      "noteName": "F4",
      "velocity": 0.7716535433070866,
      "duration": "40i"
    },
    {
      "time": "192i",
      "midiNote": 68,
      "noteName": "G#4",
      "velocity": 0.7322834645669292,
      "duration": "41i"
    },
    {
      "time": "240i",
      "midiNote": 67,
      "noteName": "G4",
      "velocity": 0.8267716535433071,
      "duration": "39i"
    },
    {
      "time": "288i",
      "midiNote": 65,
      "noteName": "F4",
      "velocity": 0.7795275590551181,
      "duration": "20i"
    },
    {
      "time": "312i",
      "midiNote": 62,
      "noteName": "D4",
      "velocity": 0.7559055118110236,
      "duration": "16i"
    },
    {
      "time": "334i",
      "midiNote": 63,
      "noteName": "D#4",
      "velocity": 0.8031496062992126,
      "duration": "40i"
    },
    {
      "time": "384i",
      "midiNote": 72,
      "noteName": "C5",
      "velocity": 0.7716535433070866,
      "duration": "39i"
    },
    {
      "time": "431i",
      "midiNote": 70,
      "noteName": "A#4",
      "velocity": 0.8346456692913385,
      "duration": "42i"
    },
    {
      "time": "481i",
      "midiNote": 68,
      "noteName": "G#4",
      "velocity": 0.6692913385826772,
      "duration": "42i"
    },
    {
      "time": "527i",
      "midiNote": 67,
      "noteName": "G4",
      "velocity": 0.7716535433070866,
      "duration": "41i"
    },
    {
      "time": "575i",
      "midiNote": 65,
      "noteName": "F4",
      "velocity": 0.7716535433070866,
      "duration": "42i"
    },
    {
      "time": "623i",
      "midiNote": 67,
      "noteName": "G4",
      "velocity": 0.7874015748031497,
      "duration": "13i"
    },
    {
      "time": "646i",
      "midiNote": 63,
      "noteName": "D#4",
      "velocity": 0.7322834645669292,
      "duration": "20i"
    },
    {
      "time": "671i",
      "midiNote": 70,
      "noteName": "A#4",
      "velocity": 0.889763779527559,
      "duration": "71i"
    },
    {
      "time": "766i",
      "midiNote": 63,
      "noteName": "D#4",
      "velocity": 0.7716535433070866,
      "duration": "67i"
    },
    {
      "time": "838i",
      "midiNote": 65,
      "noteName": "F4",
      "velocity": 0.7480314960629921,
      "duration": "18i"
    },
    {
      "time": "862i",
      "midiNote": 67,
      "noteName": "G4",
      "velocity": 0.8031496062992126,
      "duration": "42i"
    },
    {
      "time": "911i",
      "midiNote": 65,
      "noteName": "F4",
      "velocity": 0.8031496062992126,
      "duration": "39i"
    },
    {
      "time": "959i",
      "midiNote": 68,
      "noteName": "G#4",
      "velocity": 0.7559055118110236,
      "duration": "44i"
    },
    {
      "time": "1007i",
      "midiNote": 67,
      "noteName": "G4",
      "velocity": 0.8110236220472441,
      "duration": "44i"
    },
    {
      "time": "1055i",
      "midiNote": 65,
      "noteName": "F4",
      "velocity": 0.7559055118110236,
      "duration": "18i"
    },
    {
      "time": "1078i",
      "midiNote": 62,
      "noteName": "D4",
      "velocity": 0.7244094488188977,
      "duration": "21i"
    },
    {
      "time": "1103i",
      "midiNote": 63,
      "noteName": "D#4",
      "velocity": 0.7716535433070866,
      "duration": "44i"
    },
    {
      "time": "1153i",
      "midiNote": 72,
      "noteName": "C5",
      "velocity": 0.8031496062992126,
      "duration": "40i"
    },
    {
      "time": "1199i",
      "midiNote": 70,
      "noteName": "A#4",
      "velocity": 0.8110236220472441,
      "duration": "46i"
    },
    {
      "time": "1248i",
      "midiNote": 68,
      "noteName": "G#4",
      "velocity": 0.7559055118110236,
      "duration": "39i"
    },
    {
      "time": "1295i",
      "midiNote": 67,
      "noteName": "G4",
      "velocity": 0.8110236220472441,
      "duration": "40i"
    },
    {
      "time": "1343i",
      "midiNote": 65,
      "noteName": "F4",
      "velocity": 0.7795275590551181,
      "duration": "41i"
    },
    {
      "time": "1391i",
      "midiNote": 67,
      "noteName": "G4",
      "velocity": 0.84251968503937,
      "duration": "15i"
    },
    {
      "time": "1415i",
      "midiNote": 63,
      "noteName": "D#4",
      "velocity": 0.6929133858267716,
      "duration": "16i"
    },
    {
      "time": "1439i",
      "midiNote": 70,
      "noteName": "A#4",
      "velocity": 0.8818897637795275,
      "duration": "81i"
    },
    {
      "time": "1536i",
      "midiNote": 65,
      "noteName": "F4",
      "velocity": 0.7874015748031497,
      "duration": "62i"
    },
    {
      "time": "1607i",
      "midiNote": 67,
      "noteName": "G4",
      "velocity": 0.7716535433070866,
      "duration": "18i"
    },
    {
      "time": "1632i",
      "midiNote": 65,
      "noteName": "F4",
      "velocity": 0.7322834645669292,
      "duration": "20i"
    },
    {
      "time": "1655i",
      "midiNote": 62,
      "noteName": "D4",
      "velocity": 0.7322834645669292,
      "duration": "18i"
    },
    {
      "time": "1680i",
      "midiNote": 58,
      "noteName": "A#3",
      "velocity": 0.6929133858267716,
      "duration": "33i"
    },
    {
      "time": "1728i",
      "midiNote": 68,
      "noteName": "G#4",
      "velocity": 0.7322834645669292,
      "duration": "40i"
    },
    {
      "time": "1775i",
      "midiNote": 67,
      "noteName": "G4",
      "velocity": 0.7559055118110236,
      "duration": "40i"
    },
    {
      "time": "1823i",
      "midiNote": 65,
      "noteName": "F4",
      "velocity": 0.7559055118110236,
      "duration": "21i"
    },
    {
      "time": "1846i",
      "midiNote": 62,
      "noteName": "D4",
      "velocity": 0.7559055118110236,
      "duration": "12i"
    },
    {
      "time": "1871i",
      "midiNote": 58,
      "noteName": "A#3",
      "velocity": 0.7874015748031497,
      "duration": "36i"
    },
    {
      "time": "1919i",
      "midiNote": 70,
      "noteName": "A#4",
      "velocity": 0.84251968503937,
      "duration": "39i"
    },
    {
      "time": "1967i",
      "midiNote": 68,
      "noteName": "G#4",
      "velocity": 0.7716535433070866,
      "duration": "45i"
    },
    {
      "time": "2015i",
      "midiNote": 67,
      "noteName": "G4",
      "velocity": 0.8267716535433071,
      "duration": "62i"
    },
    {
      "time": "2087i",
      "midiNote": 67,
      "noteName": "G4",
      "velocity": 0.7795275590551181,
      "duration": "18i"
    },
    {
      "time": "2111i",
      "midiNote": 69,
      "noteName": "A4",
      "velocity": 0.7874015748031497,
      "duration": "38i"
    },
    {
      "time": "2160i",
      "midiNote": 69,
      "noteName": "A4",
      "velocity": 0.7559055118110236,
      "duration": "22i"
    },
    {
      "time": "2183i",
      "midiNote": 70,
      "noteName": "A#4",
      "velocity": 0.8110236220472441,
      "duration": "16i"
    },
    {
      "time": "2207i",
      "midiNote": 70,
      "noteName": "A#4",
      "velocity": 0.8110236220472441,
      "duration": "74i"
    },
    {
      "time": "2305i",
      "midiNote": 75,
      "noteName": "D#5",
      "velocity": 0.7322834645669292,
      "duration": "62i"
    },
    {
      "time": "2375i",
      "midiNote": 74,
      "noteName": "D5",
      "velocity": 0.7244094488188977,
      "duration": "17i"
    },
    {
      "time": "2401i",
      "midiNote": 74,
      "noteName": "D5",
      "velocity": 0.7559055118110236,
      "duration": "21i"
    },
    {
      "time": "2423i",
      "midiNote": 72,
      "noteName": "C5",
      "velocity": 0.7559055118110236,
      "duration": "15i"
    },
    {
      "time": "2447i",
      "midiNote": 70,
      "noteName": "A#4",
      "velocity": 0.8818897637795275,
      "duration": "42i"
    },
    {
      "time": "2494i",
      "midiNote": 72,
      "noteName": "C5",
      "velocity": 0.7322834645669292,
      "duration": "72i"
    },
    {
      "time": "2568i",
      "midiNote": 70,
      "noteName": "A#4",
      "velocity": 0.8346456692913385,
      "duration": "14i"
    },
    {
      "time": "2592i",
      "midiNote": 70,
      "noteName": "A#4",
      "velocity": 0.8661417322834646,
      "duration": "22i"
    },
    {
      "time": "2615i",
      "midiNote": 68,
      "noteName": "G#4",
      "velocity": 0.7322834645669292,
      "duration": "19i"
    },
    {
      "time": "2640i",
      "midiNote": 67,
      "noteName": "G4",
      "velocity": 0.7874015748031497,
      "duration": "35i"
    },
    {
      "time": "2686i",
      "midiNote": 65,
      "noteName": "F4",
      "velocity": 0.7716535433070866,
      "duration": "70i"
    },
    {
      "time": "2758i",
      "midiNote": 67,
      "noteName": "G4",
      "velocity": 0.7559055118110236,
      "duration": "14i"
    },
    {
      "time": "2770i",
      "midiNote": 68,
      "noteName": "G#4",
      "velocity": 0.7716535433070866,
      "duration": "13i"
    },
    {
      "time": "2784i",
      "midiNote": 70,
      "noteName": "A#4",
      "velocity": 0.8346456692913385,
      "duration": "23i"
    },
    {
      "time": "2807i",
      "midiNote": 72,
      "noteName": "C5",
      "velocity": 0.7480314960629921,
      "duration": "19i"
    },
    {
      "time": "2832i",
      "midiNote": 68,
      "noteName": "G#4",
      "velocity": 0.7559055118110236,
      "duration": "23i"
    },
    {
      "time": "2855i",
      "midiNote": 65,
      "noteName": "F4",
      "velocity": 0.7795275590551181,
      "duration": "18i"
    },
    {
      "time": "2879i",
      "midiNote": 63,
      "noteName": "D#4",
      "velocity": 0.7874015748031497,
      "duration": "43i"
    },
    {
      "time": "2927i",
      "midiNote": 67,
      "noteName": "G4",
      "velocity": 0.7874015748031497,
      "duration": "23i"
    },
    {
      "time": "2951i",
      "midiNote": 65,
      "noteName": "F4",
      "velocity": 0.7559055118110236,
      "duration": "17i"
    },
    {
      "time": "2975i",
      "midiNote": 63,
      "noteName": "D#4",
      "velocity": 0.7874015748031497,
      "duration": "151i"
    }
  ],
  "fr. horn(s)": [
    {
      "time": "0i",
      "midiNote": 55,
      "noteName": "G3",
      "velocity": 0.5433070866141733,
      "duration": "64i"
    },
    {
      "time": "0i",
      "midiNote": 58,
      "noteName": "A#3",
      "velocity": 0.5984251968503937,
      "duration": "60i"
    },
    {
      "time": "72i",
      "midiNote": 58,
      "noteName": "A#3",
      "velocity": 0.4645669291338583,
      "duration": "13i"
    },
    {
      "time": "72i",
      "midiNote": 62,
      "noteName": "D4",
      "velocity": 0.6299212598425197,
      "duration": "14i"
    },
    {
      "time": "96i",
      "midiNote": 63,
      "noteName": "D#4",
      "velocity": 0.5433070866141733,
      "duration": "40i"
    },
    {
      "time": "96i",
      "midiNote": 58,
      "noteName": "A#3",
      "velocity": 0.6299212598425197,
      "duration": "36i"
    },
    {
      "time": "142i",
      "midiNote": 58,
      "noteName": "A#3",
      "velocity": 0.5354330708661418,
      "duration": "38i"
    },
    {
      "time": "142i",
      "midiNote": 62,
      "noteName": "D4",
      "velocity": 0.6771653543307087,
      "duration": "31i"
    },
    {
      "time": "191i",
      "midiNote": 58,
      "noteName": "A#3",
      "velocity": 0.6850393700787402,
      "duration": "38i"
    },
    {
      "time": "192i",
      "midiNote": 65,
      "noteName": "F4",
      "velocity": 0.6299212598425197,
      "duration": "44i"
    },
    {
      "time": "239i",
      "midiNote": 63,
      "noteName": "D#4",
      "velocity": 0.6535433070866141,
      "duration": "41i"
    },
    {
      "time": "240i",
      "midiNote": 58,
      "noteName": "A#3",
      "velocity": 0.5590551181102362,
      "duration": "34i"
    },
    {
      "time": "286i",
      "midiNote": 56,
      "noteName": "G#3",
      "velocity": 0.5826771653543307,
      "duration": "43i"
    },
    {
      "time": "286i",
      "midiNote": 58,
      "noteName": "A#3",
      "velocity": 0.6850393700787402,
      "duration": "40i"
    },
    {
      "time": "334i",
      "midiNote": 58,
      "noteName": "A#3",
      "velocity": 0.6535433070866141,
      "duration": "36i"
    },
    {
      "time": "334i",
      "midiNote": 55,
      "noteName": "G3",
      "velocity": 0.47244094488188976,
      "duration": "36i"
    },
    {
      "time": "382i",
      "midiNote": 63,
      "noteName": "D#4",
      "velocity": 0.7401574803149606,
      "duration": "22i"
    },
    {
      "time": "406i",
      "midiNote": 65,
      "noteName": "F4",
      "velocity": 0.6299212598425197,
      "duration": "15i"
    },
    {
      "time": "429i",
      "midiNote": 67,
      "noteName": "G4",
      "velocity": 0.5826771653543307,
      "duration": "42i"
    },
    {
      "time": "429i",
      "midiNote": 63,
      "noteName": "D#4",
      "velocity": 0.7086614173228346,
      "duration": "47i"
    },
    {
      "time": "478i",
      "midiNote": 60,
      "noteName": "C4",
      "velocity": 0.6535433070866141,
      "duration": "24i"
    },
    {
      "time": "503i",
      "midiNote": 62,
      "noteName": "D4",
      "velocity": 0.6456692913385826,
      "duration": "20i"
    },
    {
      "time": "527i",
      "midiNote": 63,
      "noteName": "D#4",
      "velocity": 0.7086614173228346,
      "duration": "38i"
    },
    {
      "time": "576i",
      "midiNote": 60,
      "noteName": "C4",
      "velocity": 0.5905511811023622,
      "duration": "39i"
    },
    {
      "time": "576i",
      "midiNote": 63,
      "noteName": "D#4",
      "velocity": 0.6535433070866141,
      "duration": "47i"
    },
    {
      "time": "624i",
      "midiNote": 60,
      "noteName": "C4",
      "velocity": 0.6299212598425197,
      "duration": "47i"
    },
    {
      "time": "672i",
      "midiNote": 62,
      "noteName": "D4",
      "velocity": 0.5826771653543307,
      "duration": "78i"
    },
    {
      "time": "672i",
      "midiNote": 65,
      "noteName": "F4",
      "velocity": 0.5826771653543307,
      "duration": "80i"
    },
    {
      "time": "768i",
      "midiNote": 58,
      "noteName": "A#3",
      "velocity": 0.6850393700787402,
      "duration": "57i"
    },
    {
      "time": "768i",
      "midiNote": 55,
      "noteName": "G3",
      "velocity": 0.5748031496062992,
      "duration": "53i"
    },
    {
      "time": "838i",
      "midiNote": 62,
      "noteName": "D4",
      "velocity": 0.6692913385826772,
      "duration": "17i"
    },
    {
      "time": "838i",
      "midiNote": 58,
      "noteName": "A#3",
      "velocity": 0.6692913385826772,
      "duration": "11i"
    },
    {
      "time": "861i",
      "midiNote": 63,
      "noteName": "D#4",
      "velocity": 0.6299212598425197,
      "duration": "41i"
    },
    {
      "time": "862i",
      "midiNote": 58,
      "noteName": "A#3",
      "velocity": 0.5984251968503937,
      "duration": "35i"
    },
    {
      "time": "910i",
      "midiNote": 58,
      "noteName": "A#3",
      "velocity": 0.5590551181102362,
      "duration": "38i"
    },
    {
      "time": "910i",
      "midiNote": 62,
      "noteName": "D4",
      "velocity": 0.6771653543307087,
      "duration": "31i"
    },
    {
      "time": "958i",
      "midiNote": 58,
      "noteName": "A#3",
      "velocity": 0.5748031496062992,
      "duration": "39i"
    },
    {
      "time": "958i",
      "midiNote": 65,
      "noteName": "F4",
      "velocity": 0.6771653543307087,
      "duration": "44i"
    },
    {
      "time": "1006i",
      "midiNote": 63,
      "noteName": "D#4",
      "velocity": 0.7322834645669292,
      "duration": "44i"
    },
    {
      "time": "1007i",
      "midiNote": 58,
      "noteName": "A#3",
      "velocity": 0.4881889763779528,
      "duration": "33i"
    },
    {
      "time": "1055i",
      "midiNote": 56,
      "noteName": "G#3",
      "velocity": 0.5748031496062992,
      "duration": "33i"
    },
    {
      "time": "1055i",
      "midiNote": 58,
      "noteName": "A#3",
      "velocity": 0.7322834645669292,
      "duration": "38i"
    },
    {
      "time": "1102i",
      "midiNote": 58,
      "noteName": "A#3",
      "velocity": 0.6692913385826772,
      "duration": "40i"
    },
    {
      "time": "1103i",
      "midiNote": 55,
      "noteName": "G3",
      "velocity": 0.5590551181102362,
      "duration": "40i"
    },
    {
      "time": "1151i",
      "midiNote": 63,
      "noteName": "D#4",
      "velocity": 0.7322834645669292,
      "duration": "24i"
    },
    {
      "time": "1175i",
      "midiNote": 65,
      "noteName": "F4",
      "velocity": 0.5984251968503937,
      "duration": "17i"
    },
    {
      "time": "1199i",
      "midiNote": 63,
      "noteName": "D#4",
      "velocity": 0.6535433070866141,
      "duration": "47i"
    },
    {
      "time": "1199i",
      "midiNote": 67,
      "noteName": "G4",
      "velocity": 0.6299212598425197,
      "duration": "40i"
    },
    {
      "time": "1247i",
      "midiNote": 60,
      "noteName": "C4",
      "velocity": 0.6692913385826772,
      "duration": "21i"
    },
    {
      "time": "1271i",
      "midiNote": 62,
      "noteName": "D4",
      "velocity": 0.6299212598425197,
      "duration": "18i"
    },
    {
      "time": "1295i",
      "midiNote": 63,
      "noteName": "D#4",
      "velocity": 0.6692913385826772,
      "duration": "36i"
    },
    {
      "time": "1343i",
      "midiNote": 63,
      "noteName": "D#4",
      "velocity": 0.5590551181102362,
      "duration": "46i"
    },
    {
      "time": "1343i",
      "midiNote": 60,
      "noteName": "C4",
      "velocity": 0.5984251968503937,
      "duration": "36i"
    },
    {
      "time": "1391i",
      "midiNote": 60,
      "noteName": "C4",
      "velocity": 0.6062992125984252,
      "duration": "42i"
    },
    {
      "time": "1439i",
      "midiNote": 62,
      "noteName": "D4",
      "velocity": 0.5669291338582677,
      "duration": "73i"
    },
    {
      "time": "1439i",
      "midiNote": 65,
      "noteName": "F4",
      "velocity": 0.5905511811023622,
      "duration": "76i"
    },
    {
      "time": "1536i",
      "midiNote": 62,
      "noteName": "D4",
      "velocity": 0.7007874015748031,
      "duration": "46i"
    },
    {
      "time": "1536i",
      "midiNote": 58,
      "noteName": "A#3",
      "velocity": 0.6535433070866141,
      "duration": "41i"
    },
    {
      "time": "1608i",
      "midiNote": 63,
      "noteName": "D#4",
      "velocity": 0.7322834645669292,
      "duration": "19i"
    },
    {
      "time": "1609i",
      "midiNote": 58,
      "noteName": "A#3",
      "velocity": 0.5826771653543307,
      "duration": "13i"
    },
    {
      "time": "1631i",
      "midiNote": 58,
      "noteName": "A#3",
      "velocity": 0.7007874015748031,
      "duration": "40i"
    },
    {
      "time": "1679i",
      "midiNote": 58,
      "noteName": "A#3",
      "velocity": 0.5905511811023622,
      "duration": "35i"
    },
    {
      "time": "1727i",
      "midiNote": 58,
      "noteName": "A#3",
      "velocity": 0.6141732283464567,
      "duration": "39i"
    },
    {
      "time": "1727i",
      "midiNote": 65,
      "noteName": "F4",
      "velocity": 0.6692913385826772,
      "duration": "43i"
    },
    {
      "time": "1775i",
      "midiNote": 63,
      "noteName": "D#4",
      "velocity": 0.7322834645669292,
      "duration": "40i"
    },
    {
      "time": "1775i",
      "midiNote": 58,
      "noteName": "A#3",
      "velocity": 0.5433070866141733,
      "duration": "34i"
    },
    {
      "time": "1822i",
      "midiNote": 58,
      "noteName": "A#3",
      "velocity": 0.7637795275590551,
      "duration": "41i"
    },
    {
      "time": "1822i",
      "midiNote": 55,
      "noteName": "G3",
      "velocity": 0.4566929133858268,
      "duration": "43i"
    },
    {
      "time": "1870i",
      "midiNote": 58,
      "noteName": "A#3",
      "velocity": 0.6692913385826772,
      "duration": "35i"
    },
    {
      "time": "1919i",
      "midiNote": 58,
      "noteName": "A#3",
      "velocity": 0.6299212598425197,
      "duration": "36i"
    },
    {
      "time": "1919i",
      "midiNote": 63,
      "noteName": "D#4",
      "velocity": 0.6850393700787402,
      "duration": "48i"
    },
    {
      "time": "1920i",
      "midiNote": 63,
      "noteName": "D#4",
      "velocity": 0.6850393700787402,
      "duration": "39i"
    },
    {
      "time": "1920i",
      "midiNote": 58,
      "noteName": "A#3",
      "velocity": 0.6535433070866141,
      "duration": "35i"
    },
    {
      "time": "1966i",
      "midiNote": 60,
      "noteName": "C4",
      "velocity": 0.6850393700787402,
      "duration": "24i"
    },
    {
      "time": "1990i",
      "midiNote": 62,
      "noteName": "D4",
      "velocity": 0.6850393700787402,
      "duration": "18i"
    },
    {
      "time": "2014i",
      "midiNote": 63,
      "noteName": "D#4",
      "velocity": 0.6850393700787402,
      "duration": "65i"
    },
    {
      "time": "2015i",
      "midiNote": 60,
      "noteName": "C4",
      "velocity": 0.6141732283464567,
      "duration": "68i"
    },
    {
      "time": "2087i",
      "midiNote": 63,
      "noteName": "D#4",
      "velocity": 0.7007874015748031,
      "duration": "17i"
    },
    {
      "time": "2111i",
      "midiNote": 63,
      "noteName": "D#4",
      "velocity": 0.6850393700787402,
      "duration": "40i"
    },
    {
      "time": "2111i",
      "midiNote": 60,
      "noteName": "C4",
      "velocity": 0.5984251968503937,
      "duration": "40i"
    },
    {
      "time": "2158i",
      "midiNote": 63,
      "noteName": "D#4",
      "velocity": 0.6535433070866141,
      "duration": "21i"
    },
    {
      "time": "2159i",
      "midiNote": 60,
      "noteName": "C4",
      "velocity": 0.6299212598425197,
      "duration": "22i"
    },
    {
      "time": "2183i",
      "midiNote": 62,
      "noteName": "D4",
      "velocity": 0.6692913385826772,
      "duration": "14i"
    },
    {
      "time": "2183i",
      "midiNote": 65,
      "noteName": "F4",
      "velocity": 0.6456692913385826,
      "duration": "14i"
    },
    {
      "time": "2206i",
      "midiNote": 62,
      "noteName": "D4",
      "velocity": 0.6535433070866141,
      "duration": "75i"
    },
    {
      "time": "2206i",
      "midiNote": 65,
      "noteName": "F4",
      "velocity": 0.6456692913385826,
      "duration": "82i"
    },
    {
      "time": "2303i",
      "midiNote": 70,
      "noteName": "A#4",
      "velocity": 0.7401574803149606,
      "duration": "62i"
    },
    {
      "time": "2303i",
      "midiNote": 63,
      "noteName": "D#4",
      "velocity": 0.6535433070866141,
      "duration": "70i"
    },
    {
      "time": "2376i",
      "midiNote": 70,
      "noteName": "A#4",
      "velocity": 0.7795275590551181,
      "duration": "16i"
    },
    {
      "time": "2399i",
      "midiNote": 68,
      "noteName": "G#4",
      "velocity": 0.7007874015748031,
      "duration": "44i"
    },
    {
      "time": "2400i",
      "midiNote": 63,
      "noteName": "D#4",
      "velocity": 0.6141732283464567,
      "duration": "41i"
    },
    {
      "time": "2447i",
      "midiNote": 67,
      "noteName": "G4",
      "velocity": 0.7401574803149606,
      "duration": "41i"
    },
    {
      "time": "2447i",
      "midiNote": 63,
      "noteName": "D#4",
      "velocity": 0.6299212598425197,
      "duration": "33i"
    },
    {
      "time": "2494i",
      "midiNote": 68,
      "noteName": "G#4",
      "velocity": 0.6299212598425197,
      "duration": "71i"
    },
    {
      "time": "2495i",
      "midiNote": 63,
      "noteName": "D#4",
      "velocity": 0.6535433070866141,
      "duration": "61i"
    },
    {
      "time": "2568i",
      "midiNote": 63,
      "noteName": "D#4",
      "velocity": 0.6535433070866141,
      "duration": "15i"
    },
    {
      "time": "2568i",
      "midiNote": 67,
      "noteName": "G4",
      "velocity": 0.7086614173228346,
      "duration": "15i"
    },
    {
      "time": "2591i",
      "midiNote": 65,
      "noteName": "F4",
      "velocity": 0.7322834645669292,
      "duration": "47i"
    },
    {
      "time": "2591i",
      "midiNote": 62,
      "noteName": "D4",
      "velocity": 0.6299212598425197,
      "duration": "45i"
    },
    {
      "time": "2639i",
      "midiNote": 63,
      "noteName": "D#4",
      "velocity": 0.7401574803149606,
      "duration": "45i"
    },
    {
      "time": "2687i",
      "midiNote": 62,
      "noteName": "D4",
      "velocity": 0.7322834645669292,
      "duration": "71i"
    },
    {
      "time": "2687i",
      "midiNote": 58,
      "noteName": "A#3",
      "velocity": 0.6850393700787402,
      "duration": "70i"
    },
    {
      "time": "2782i",
      "midiNote": 63,
      "noteName": "D#4",
      "velocity": 0.7322834645669292,
      "duration": "48i"
    },
    {
      "time": "2830i",
      "midiNote": 60,
      "noteName": "C4",
      "velocity": 0.7086614173228346,
      "duration": "46i"
    },
    {
      "time": "2878i",
      "midiNote": 58,
      "noteName": "A#3",
      "velocity": 0.7401574803149606,
      "duration": "45i"
    },
    {
      "time": "2879i",
      "midiNote": 55,
      "noteName": "G3",
      "velocity": 0.5039370078740157,
      "duration": "29i"
    },
    {
      "time": "2928i",
      "midiNote": 56,
      "noteName": "G#3",
      "velocity": 0.7007874015748031,
      "duration": "41i"
    },
    {
      "time": "2928i",
      "midiNote": 62,
      "noteName": "D4",
      "velocity": 0.7086614173228346,
      "duration": "45i"
    },
    {
      "time": "2975i",
      "midiNote": 55,
      "noteName": "G3",
      "velocity": 0.5039370078740157,
      "duration": "147i"
    },
    {
      "time": "2975i",
      "midiNote": 58,
      "noteName": "A#3",
      "velocity": 0.7401574803149606,
      "duration": "148i"
    },
    {
      "time": "2975i",
      "midiNote": 63,
      "noteName": "D#4",
      "velocity": 0.7401574803149606,
      "duration": "148i"
    }
  ],
  "trombone(s)": [
    {
      "time": "0i",
      "midiNote": 51,
      "noteName": "D#3",
      "velocity": 0.6299212598425197,
      "duration": "63i"
    },
    {
      "time": "72i",
      "midiNote": 46,
      "noteName": "A#2",
      "velocity": 0.7401574803149606,
      "duration": "13i"
    },
    {
      "time": "96i",
      "midiNote": 51,
      "noteName": "D#3",
      "velocity": 0.5826771653543307,
      "duration": "47i"
    },
    {
      "time": "143i",
      "midiNote": 46,
      "noteName": "A#2",
      "velocity": 0.5196850393700787,
      "duration": "42i"
    },
    {
      "time": "192i",
      "midiNote": 50,
      "noteName": "D3",
      "velocity": 0.6220472440944882,
      "duration": "44i"
    },
    {
      "time": "240i",
      "midiNote": 51,
      "noteName": "D#3",
      "velocity": 0.5039370078740157,
      "duration": "47i"
    },
    {
      "time": "288i",
      "midiNote": 46,
      "noteName": "A#2",
      "velocity": 0.5196850393700787,
      "duration": "36i"
    },
    {
      "time": "334i",
      "midiNote": 51,
      "noteName": "D#3",
      "velocity": 0.5590551181102362,
      "duration": "42i"
    },
    {
      "time": "382i",
      "midiNote": 44,
      "noteName": "G#2",
      "velocity": 0.5984251968503937,
      "duration": "44i"
    },
    {
      "time": "432i",
      "midiNote": 51,
      "noteName": "D#3",
      "velocity": 0.6692913385826772,
      "duration": "39i"
    },
    {
      "time": "480i",
      "midiNote": 53,
      "noteName": "F3",
      "velocity": 0.7007874015748031,
      "duration": "37i"
    },
    {
      "time": "527i",
      "midiNote": 51,
      "noteName": "D#3",
      "velocity": 0.7007874015748031,
      "duration": "44i"
    },
    {
      "time": "576i",
      "midiNote": 44,
      "noteName": "G#2",
      "velocity": 0.6535433070866141,
      "duration": "42i"
    },
    {
      "time": "624i",
      "midiNote": 45,
      "noteName": "A2",
      "velocity": 0.7086614173228346,
      "duration": "44i"
    },
    {
      "time": "671i",
      "midiNote": 46,
      "noteName": "A#2",
      "velocity": 0.7007874015748031,
      "duration": "76i"
    },
    {
      "time": "767i",
      "midiNote": 51,
      "noteName": "D#3",
      "velocity": 0.6535433070866141,
      "duration": "60i"
    },
    {
      "time": "838i",
      "midiNote": 46,
      "noteName": "A#2",
      "velocity": 0.6535433070866141,
      "duration": "15i"
    },
    {
      "time": "862i",
      "midiNote": 51,
      "noteName": "D#3",
      "velocity": 0.6299212598425197,
      "duration": "41i"
    },
    {
      "time": "910i",
      "midiNote": 46,
      "noteName": "A#2",
      "velocity": 0.7007874015748031,
      "duration": "43i"
    },
    {
      "time": "958i",
      "midiNote": 50,
      "noteName": "D3",
      "velocity": 0.6141732283464567,
      "duration": "45i"
    },
    {
      "time": "1007i",
      "midiNote": 51,
      "noteName": "D#3",
      "velocity": 0.5433070866141733,
      "duration": "41i"
    },
    {
      "time": "1055i",
      "midiNote": 46,
      "noteName": "A#2",
      "velocity": 0.5826771653543307,
      "duration": "50i"
    },
    {
      "time": "1102i",
      "midiNote": 51,
      "noteName": "D#3",
      "velocity": 0.5433070866141733,
      "duration": "35i"
    },
    {
      "time": "1151i",
      "midiNote": 44,
      "noteName": "G#2",
      "velocity": 0.6535433070866141,
      "duration": "46i"
    },
    {
      "time": "1200i",
      "midiNote": 51,
      "noteName": "D#3",
      "velocity": 0.6692913385826772,
      "duration": "36i"
    },
    {
      "time": "1248i",
      "midiNote": 53,
      "noteName": "F3",
      "velocity": 0.6771653543307087,
      "duration": "38i"
    },
    {
      "time": "1295i",
      "midiNote": 51,
      "noteName": "D#3",
      "velocity": 0.6692913385826772,
      "duration": "33i"
    },
    {
      "time": "1342i",
      "midiNote": 44,
      "noteName": "G#2",
      "velocity": 0.7086614173228346,
      "duration": "41i"
    },
    {
      "time": "1392i",
      "midiNote": 45,
      "noteName": "A2",
      "velocity": 0.7086614173228346,
      "duration": "33i"
    },
    {
      "time": "1439i",
      "midiNote": 46,
      "noteName": "A#2",
      "velocity": 0.7086614173228346,
      "duration": "59i"
    },
    {
      "time": "1536i",
      "midiNote": 46,
      "noteName": "A#2",
      "velocity": 0.6850393700787402,
      "duration": "63i"
    },
    {
      "time": "1608i",
      "midiNote": 51,
      "noteName": "D#3",
      "velocity": 0.6299212598425197,
      "duration": "16i"
    },
    {
      "time": "1631i",
      "midiNote": 46,
      "noteName": "A#2",
      "velocity": 0.6299212598425197,
      "duration": "81i"
    },
    {
      "time": "1727i",
      "midiNote": 50,
      "noteName": "D3",
      "velocity": 0.5984251968503937,
      "duration": "41i"
    },
    {
      "time": "1776i",
      "midiNote": 51,
      "noteName": "D#3",
      "velocity": 0.5748031496062992,
      "duration": "36i"
    },
    {
      "time": "1823i",
      "midiNote": 46,
      "noteName": "A#2",
      "velocity": 0.7086614173228346,
      "duration": "77i"
    },
    {
      "time": "1919i",
      "midiNote": 43,
      "noteName": "G2",
      "velocity": 0.6535433070866141,
      "duration": "46i"
    },
    {
      "time": "1967i",
      "midiNote": 44,
      "noteName": "G#2",
      "velocity": 0.6299212598425197,
      "duration": "17i"
    },
    {
      "time": "1990i",
      "midiNote": 46,
      "noteName": "A#2",
      "velocity": 0.6850393700787402,
      "duration": "16i"
    },
    {
      "time": "2015i",
      "midiNote": 48,
      "noteName": "C3",
      "velocity": 0.6141732283464567,
      "duration": "77i"
    },
    {
      "time": "2110i",
      "midiNote": 41,
      "noteName": "F2",
      "velocity": 0.6456692913385826,
      "duration": "89i"
    },
    {
      "time": "2207i",
      "midiNote": 46,
      "noteName": "A#2",
      "velocity": 0.7322834645669292,
      "duration": "85i"
    },
    {
      "time": "2305i",
      "midiNote": 43,
      "noteName": "G2",
      "velocity": 0.7244094488188977,
      "duration": "41i"
    },
    {
      "time": "2352i",
      "midiNote": 55,
      "noteName": "G3",
      "velocity": 0.5748031496062992,
      "duration": "42i"
    },
    {
      "time": "2400i",
      "midiNote": 56,
      "noteName": "G#3",
      "velocity": 0.5039370078740157,
      "duration": "40i"
    },
    {
      "time": "2447i",
      "midiNote": 51,
      "noteName": "D#3",
      "velocity": 0.6141732283464567,
      "duration": "44i"
    },
    {
      "time": "2495i",
      "midiNote": 44,
      "noteName": "G#2",
      "velocity": 0.6299212598425197,
      "duration": "60i"
    },
    {
      "time": "2566i",
      "midiNote": 51,
      "noteName": "D#3",
      "velocity": 0.6535433070866141,
      "duration": "16i"
    },
    {
      "time": "2590i",
      "midiNote": 46,
      "noteName": "A#2",
      "velocity": 0.7401574803149606,
      "duration": "38i"
    },
    {
      "time": "2638i",
      "midiNote": 51,
      "noteName": "D#3",
      "velocity": 0.6692913385826772,
      "duration": "37i"
    },
    {
      "time": "2686i",
      "midiNote": 44,
      "noteName": "G#2",
      "velocity": 0.6692913385826772,
      "duration": "87i"
    },
    {
      "time": "2782i",
      "midiNote": 43,
      "noteName": "G2",
      "velocity": 0.6850393700787402,
      "duration": "42i"
    },
    {
      "time": "2830i",
      "midiNote": 44,
      "noteName": "G#2",
      "velocity": 0.6692913385826772,
      "duration": "47i"
    },
    {
      "time": "2878i",
      "midiNote": 46,
      "noteName": "A#2",
      "velocity": 0.6692913385826772,
      "duration": "36i"
    },
    {
      "time": "2880i",
      "midiNote": 46,
      "noteName": "A#2",
      "velocity": 0.6535433070866141,
      "duration": "31i"
    },
    {
      "time": "2927i",
      "midiNote": 46,
      "noteName": "A#2",
      "velocity": 0.7086614173228346,
      "duration": "37i"
    },
    {
      "time": "2975i",
      "midiNote": 39,
      "noteName": "D#2",
      "velocity": 0.5354330708661418,
      "duration": "149i"
    },
    {
      "time": "2975i",
      "midiNote": 51,
      "noteName": "D#3",
      "velocity": 0.5826771653543307,
      "duration": "149i"
    }
  ],
  "tuba(s)": [
    {
      "time": "0i",
      "midiNote": 39,
      "noteName": "D#2",
      "velocity": 0.7086614173228346,
      "duration": "62i"
    },
    {
      "time": "72i",
      "midiNote": 34,
      "noteName": "A#1",
      "velocity": 0.7637795275590551,
      "duration": "11i"
    },
    {
      "time": "96i",
      "midiNote": 39,
      "noteName": "D#2",
      "velocity": 0.6299212598425197,
      "duration": "37i"
    },
    {
      "time": "143i",
      "midiNote": 34,
      "noteName": "A#1",
      "velocity": 0.5984251968503937,
      "duration": "39i"
    },
    {
      "time": "192i",
      "midiNote": 38,
      "noteName": "D2",
      "velocity": 0.6299212598425197,
      "duration": "42i"
    },
    {
      "time": "240i",
      "midiNote": 39,
      "noteName": "D#2",
      "velocity": 0.6535433070866141,
      "duration": "42i"
    },
    {
      "time": "288i",
      "midiNote": 34,
      "noteName": "A#1",
      "velocity": 0.6850393700787402,
      "duration": "38i"
    },
    {
      "time": "334i",
      "midiNote": 39,
      "noteName": "D#2",
      "velocity": 0.6299212598425197,
      "duration": "35i"
    },
    {
      "time": "382i",
      "midiNote": 32,
      "noteName": "G#1",
      "velocity": 0.6299212598425197,
      "duration": "43i"
    },
    {
      "time": "432i",
      "midiNote": 39,
      "noteName": "D#2",
      "velocity": 0.6535433070866141,
      "duration": "39i"
    },
    {
      "time": "480i",
      "midiNote": 41,
      "noteName": "F2",
      "velocity": 0.6141732283464567,
      "duration": "37i"
    },
    {
      "time": "527i",
      "midiNote": 39,
      "noteName": "D#2",
      "velocity": 0.6299212598425197,
      "duration": "44i"
    },
    {
      "time": "577i",
      "midiNote": 32,
      "noteName": "G#1",
      "velocity": 0.7007874015748031,
      "duration": "39i"
    },
    {
      "time": "624i",
      "midiNote": 33,
      "noteName": "A1",
      "velocity": 0.6771653543307087,
      "duration": "39i"
    },
    {
      "time": "672i",
      "midiNote": 34,
      "noteName": "A#1",
      "velocity": 0.5984251968503937,
      "duration": "78i"
    },
    {
      "time": "767i",
      "midiNote": 39,
      "noteName": "D#2",
      "velocity": 0.6850393700787402,
      "duration": "61i"
    },
    {
      "time": "839i",
      "midiNote": 34,
      "noteName": "A#1",
      "velocity": 0.7007874015748031,
      "duration": "14i"
    },
    {
      "time": "862i",
      "midiNote": 39,
      "noteName": "D#2",
      "velocity": 0.6141732283464567,
      "duration": "35i"
    },
    {
      "time": "910i",
      "midiNote": 34,
      "noteName": "A#1",
      "velocity": 0.6535433070866141,
      "duration": "37i"
    },
    {
      "time": "958i",
      "midiNote": 38,
      "noteName": "D2",
      "velocity": 0.6141732283464567,
      "duration": "40i"
    },
    {
      "time": "1007i",
      "midiNote": 39,
      "noteName": "D#2",
      "velocity": 0.6535433070866141,
      "duration": "43i"
    },
    {
      "time": "1055i",
      "midiNote": 34,
      "noteName": "A#1",
      "velocity": 0.7322834645669292,
      "duration": "39i"
    },
    {
      "time": "1103i",
      "midiNote": 39,
      "noteName": "D#2",
      "velocity": 0.6535433070866141,
      "duration": "37i"
    },
    {
      "time": "1151i",
      "midiNote": 32,
      "noteName": "G#1",
      "velocity": 0.6850393700787402,
      "duration": "43i"
    },
    {
      "time": "1200i",
      "midiNote": 39,
      "noteName": "D#2",
      "velocity": 0.5984251968503937,
      "duration": "38i"
    },
    {
      "time": "1247i",
      "midiNote": 41,
      "noteName": "F2",
      "velocity": 0.7007874015748031,
      "duration": "42i"
    },
    {
      "time": "1295i",
      "midiNote": 39,
      "noteName": "D#2",
      "velocity": 0.7007874015748031,
      "duration": "41i"
    },
    {
      "time": "1344i",
      "midiNote": 32,
      "noteName": "G#1",
      "velocity": 0.6850393700787402,
      "duration": "40i"
    },
    {
      "time": "1391i",
      "midiNote": 33,
      "noteName": "A1",
      "velocity": 0.6692913385826772,
      "duration": "47i"
    },
    {
      "time": "1440i",
      "midiNote": 34,
      "noteName": "A#1",
      "velocity": 0.7086614173228346,
      "duration": "78i"
    },
    {
      "time": "1536i",
      "midiNote": 34,
      "noteName": "A#1",
      "velocity": 0.7007874015748031,
      "duration": "64i"
    },
    {
      "time": "1607i",
      "midiNote": 39,
      "noteName": "D#2",
      "velocity": 0.6850393700787402,
      "duration": "20i"
    },
    {
      "time": "1631i",
      "midiNote": 34,
      "noteName": "A#1",
      "velocity": 0.7086614173228346,
      "duration": "83i"
    },
    {
      "time": "1728i",
      "midiNote": 38,
      "noteName": "D2",
      "velocity": 0.6771653543307087,
      "duration": "36i"
    },
    {
      "time": "1775i",
      "midiNote": 39,
      "noteName": "D#2",
      "velocity": 0.7401574803149606,
      "duration": "40i"
    },
    {
      "time": "1823i",
      "midiNote": 34,
      "noteName": "A#1",
      "velocity": 0.6535433070866141,
      "duration": "82i"
    },
    {
      "time": "1919i",
      "midiNote": 31,
      "noteName": "G1",
      "velocity": 0.6535433070866141,
      "duration": "42i"
    },
    {
      "time": "1967i",
      "midiNote": 32,
      "noteName": "G#1",
      "velocity": 0.6535433070866141,
      "duration": "15i"
    },
    {
      "time": "1990i",
      "midiNote": 34,
      "noteName": "A#1",
      "velocity": 0.5984251968503937,
      "duration": "18i"
    },
    {
      "time": "2015i",
      "midiNote": 36,
      "noteName": "C2",
      "velocity": 0.6299212598425197,
      "duration": "86i"
    },
    {
      "time": "2111i",
      "midiNote": 29,
      "noteName": "F1",
      "velocity": 0.5748031496062992,
      "duration": "96i"
    },
    {
      "time": "2112i",
      "midiNote": 29,
      "noteName": "F1",
      "velocity": 0.6535433070866141,
      "duration": "91i"
    },
    {
      "time": "2207i",
      "midiNote": 34,
      "noteName": "A#1",
      "velocity": 0.6299212598425197,
      "duration": "79i"
    },
    {
      "time": "2304i",
      "midiNote": 31,
      "noteName": "G1",
      "velocity": 0.7244094488188977,
      "duration": "45i"
    },
    {
      "time": "2352i",
      "midiNote": 43,
      "noteName": "G2",
      "velocity": 0.5669291338582677,
      "duration": "40i"
    },
    {
      "time": "2399i",
      "midiNote": 44,
      "noteName": "G#2",
      "velocity": 0.6535433070866141,
      "duration": "41i"
    },
    {
      "time": "2447i",
      "midiNote": 39,
      "noteName": "D#2",
      "velocity": 0.7401574803149606,
      "duration": "47i"
    },
    {
      "time": "2496i",
      "midiNote": 32,
      "noteName": "G#1",
      "velocity": 0.6850393700787402,
      "duration": "61i"
    },
    {
      "time": "2567i",
      "midiNote": 39,
      "noteName": "D#2",
      "velocity": 0.6535433070866141,
      "duration": "20i"
    },
    {
      "time": "2591i",
      "midiNote": 34,
      "noteName": "A#1",
      "velocity": 0.7795275590551181,
      "duration": "39i"
    },
    {
      "time": "2639i",
      "midiNote": 39,
      "noteName": "D#2",
      "velocity": 0.7086614173228346,
      "duration": "38i"
    },
    {
      "time": "2687i",
      "midiNote": 32,
      "noteName": "G#1",
      "velocity": 0.6692913385826772,
      "duration": "85i"
    },
    {
      "time": "2782i",
      "midiNote": 31,
      "noteName": "G1",
      "velocity": 0.6850393700787402,
      "duration": "40i"
    },
    {
      "time": "2830i",
      "midiNote": 32,
      "noteName": "G#1",
      "velocity": 0.6299212598425197,
      "duration": "50i"
    },
    {
      "time": "2878i",
      "midiNote": 34,
      "noteName": "A#1",
      "velocity": 0.6850393700787402,
      "duration": "43i"
    },
    {
      "time": "2927i",
      "midiNote": 34,
      "noteName": "A#1",
      "velocity": 0.7007874015748031,
      "duration": "50i"
    },
    {
      "time": "2976i",
      "midiNote": 39,
      "noteName": "D#2",
      "velocity": 0.7007874015748031,
      "duration": "146i"
    }
  ],
  "strings (hi)": [
    {
      "time": "0i",
      "midiNote": 63,
      "noteName": "D#4",
      "velocity": 0.5984251968503937,
      "duration": "74i"
    },
    {
      "time": "72i",
      "midiNote": 65,
      "noteName": "F4",
      "velocity": 0.5748031496062992,
      "duration": "26i"
    },
    {
      "time": "96i",
      "midiNote": 67,
      "noteName": "G4",
      "velocity": 0.5905511811023622,
      "duration": "41i"
    },
    {
      "time": "142i",
      "midiNote": 65,
      "noteName": "F4",
      "velocity": 0.5118110236220472,
      "duration": "40i"
    },
    {
      "time": "192i",
      "midiNote": 68,
      "noteName": "G#4",
      "velocity": 0.6535433070866141,
      "duration": "48i"
    },
    {
      "time": "240i",
      "midiNote": 67,
      "noteName": "G4",
      "velocity": 0.7244094488188977,
      "duration": "45i"
    },
    {
      "time": "287i",
      "midiNote": 65,
      "noteName": "F4",
      "velocity": 0.6771653543307087,
      "duration": "22i"
    },
    {
      "time": "310i",
      "midiNote": 62,
      "noteName": "D4",
      "velocity": 0.5748031496062992,
      "duration": "25i"
    },
    {
      "time": "334i",
      "midiNote": 63,
      "noteName": "D#4",
      "velocity": 0.6299212598425197,
      "duration": "39i"
    },
    {
      "time": "383i",
      "midiNote": 72,
      "noteName": "C5",
      "velocity": 0.6299212598425197,
      "duration": "47i"
    },
    {
      "time": "430i",
      "midiNote": 70,
      "noteName": "A#4",
      "velocity": 0.7637795275590551,
      "duration": "47i"
    },
    {
      "time": "478i",
      "midiNote": 68,
      "noteName": "G#4",
      "velocity": 0.6141732283464567,
      "duration": "49i"
    },
    {
      "time": "527i",
      "midiNote": 67,
      "noteName": "G4",
      "velocity": 0.6850393700787402,
      "duration": "48i"
    },
    {
      "time": "576i",
      "midiNote": 65,
      "noteName": "F4",
      "velocity": 0.6299212598425197,
      "duration": "45i"
    },
    {
      "time": "623i",
      "midiNote": 67,
      "noteName": "G4",
      "velocity": 0.6535433070866141,
      "duration": "22i"
    },
    {
      "time": "647i",
      "midiNote": 63,
      "noteName": "D#4",
      "velocity": 0.6299212598425197,
      "duration": "27i"
    },
    {
      "time": "671i",
      "midiNote": 70,
      "noteName": "A#4",
      "velocity": 0.6850393700787402,
      "duration": "73i"
    },
    {
      "time": "768i",
      "midiNote": 63,
      "noteName": "D#4",
      "velocity": 0.6692913385826772,
      "duration": "64i"
    },
    {
      "time": "839i",
      "midiNote": 65,
      "noteName": "F4",
      "velocity": 0.6535433070866141,
      "duration": "23i"
    },
    {
      "time": "863i",
      "midiNote": 67,
      "noteName": "G4",
      "velocity": 0.6850393700787402,
      "duration": "40i"
    },
    {
      "time": "909i",
      "midiNote": 65,
      "noteName": "F4",
      "velocity": 0.5748031496062992,
      "duration": "47i"
    },
    {
      "time": "958i",
      "midiNote": 68,
      "noteName": "G#4",
      "velocity": 0.6535433070866141,
      "duration": "48i"
    },
    {
      "time": "1008i",
      "midiNote": 67,
      "noteName": "G4",
      "velocity": 0.7244094488188977,
      "duration": "46i"
    },
    {
      "time": "1055i",
      "midiNote": 65,
      "noteName": "F4",
      "velocity": 0.7007874015748031,
      "duration": "23i"
    },
    {
      "time": "1079i",
      "midiNote": 62,
      "noteName": "D4",
      "velocity": 0.6220472440944882,
      "duration": "25i"
    },
    {
      "time": "1103i",
      "midiNote": 63,
      "noteName": "D#4",
      "velocity": 0.6692913385826772,
      "duration": "34i"
    },
    {
      "time": "1152i",
      "midiNote": 72,
      "noteName": "C5",
      "velocity": 0.6299212598425197,
      "duration": "48i"
    },
    {
      "time": "1199i",
      "midiNote": 70,
      "noteName": "A#4",
      "velocity": 0.7086614173228346,
      "duration": "47i"
    },
    {
      "time": "1248i",
      "midiNote": 68,
      "noteName": "G#4",
      "velocity": 0.5826771653543307,
      "duration": "45i"
    },
    {
      "time": "1294i",
      "midiNote": 67,
      "noteName": "G4",
      "velocity": 0.6535433070866141,
      "duration": "49i"
    },
    {
      "time": "1343i",
      "midiNote": 65,
      "noteName": "F4",
      "velocity": 0.6771653543307087,
      "duration": "49i"
    },
    {
      "time": "1391i",
      "midiNote": 67,
      "noteName": "G4",
      "velocity": 0.6692913385826772,
      "duration": "21i"
    },
    {
      "time": "1415i",
      "midiNote": 63,
      "noteName": "D#4",
      "velocity": 0.5984251968503937,
      "duration": "24i"
    },
    {
      "time": "1439i",
      "midiNote": 70,
      "noteName": "A#4",
      "velocity": 0.6850393700787402,
      "duration": "89i"
    },
    {
      "time": "1536i",
      "midiNote": 65,
      "noteName": "F4",
      "velocity": 0.6692913385826772,
      "duration": "64i"
    },
    {
      "time": "1607i",
      "midiNote": 67,
      "noteName": "G4",
      "velocity": 0.7244094488188977,
      "duration": "23i"
    },
    {
      "time": "1631i",
      "midiNote": 65,
      "noteName": "F4",
      "velocity": 0.6299212598425197,
      "duration": "22i"
    },
    {
      "time": "1654i",
      "midiNote": 62,
      "noteName": "D4",
      "velocity": 0.6535433070866141,
      "duration": "24i"
    },
    {
      "time": "1679i",
      "midiNote": 58,
      "noteName": "A#3",
      "velocity": 0.6535433070866141,
      "duration": "44i"
    },
    {
      "time": "1727i",
      "midiNote": 68,
      "noteName": "G#4",
      "velocity": 0.6850393700787402,
      "duration": "44i"
    },
    {
      "time": "1775i",
      "midiNote": 67,
      "noteName": "G4",
      "velocity": 0.6535433070866141,
      "duration": "43i"
    },
    {
      "time": "1822i",
      "midiNote": 65,
      "noteName": "F4",
      "velocity": 0.6456692913385826,
      "duration": "23i"
    },
    {
      "time": "1846i",
      "midiNote": 62,
      "noteName": "D4",
      "velocity": 0.6535433070866141,
      "duration": "24i"
    },
    {
      "time": "1870i",
      "midiNote": 58,
      "noteName": "A#3",
      "velocity": 0.6535433070866141,
      "duration": "41i"
    },
    {
      "time": "1919i",
      "midiNote": 70,
      "noteName": "A#4",
      "velocity": 0.7795275590551181,
      "duration": "48i"
    },
    {
      "time": "1968i",
      "midiNote": 68,
      "noteName": "G#4",
      "velocity": 0.6299212598425197,
      "duration": "46i"
    },
    {
      "time": "2015i",
      "midiNote": 67,
      "noteName": "G4",
      "velocity": 0.6299212598425197,
      "duration": "59i"
    },
    {
      "time": "2086i",
      "midiNote": 67,
      "noteName": "G4",
      "velocity": 0.7086614173228346,
      "duration": "24i"
    },
    {
      "time": "2111i",
      "midiNote": 69,
      "noteName": "A4",
      "velocity": 0.7086614173228346,
      "duration": "37i"
    },
    {
      "time": "2158i",
      "midiNote": 69,
      "noteName": "A4",
      "velocity": 0.6535433070866141,
      "duration": "28i"
    },
    {
      "time": "2183i",
      "midiNote": 70,
      "noteName": "A#4",
      "velocity": 0.6692913385826772,
      "duration": "16i"
    },
    {
      "time": "2207i",
      "midiNote": 70,
      "noteName": "A#4",
      "velocity": 0.6692913385826772,
      "duration": "81i"
    },
    {
      "time": "2304i",
      "midiNote": 75,
      "noteName": "D#5",
      "velocity": 0.6299212598425197,
      "duration": "72i"
    },
    {
      "time": "2376i",
      "midiNote": 74,
      "noteName": "D5",
      "velocity": 0.5590551181102362,
      "duration": "15i"
    },
    {
      "time": "2399i",
      "midiNote": 74,
      "noteName": "D5",
      "velocity": 0.6220472440944882,
      "duration": "23i"
    },
    {
      "time": "2422i",
      "midiNote": 72,
      "noteName": "C5",
      "velocity": 0.5826771653543307,
      "duration": "25i"
    },
    {
      "time": "2447i",
      "midiNote": 70,
      "noteName": "A#4",
      "velocity": 0.6535433070866141,
      "duration": "44i"
    },
    {
      "time": "2495i",
      "midiNote": 72,
      "noteName": "C5",
      "velocity": 0.6456692913385826,
      "duration": "71i"
    },
    {
      "time": "2567i",
      "midiNote": 70,
      "noteName": "A#4",
      "velocity": 0.7401574803149606,
      "duration": "16i"
    },
    {
      "time": "2590i",
      "midiNote": 70,
      "noteName": "A#4",
      "velocity": 0.7086614173228346,
      "duration": "28i"
    },
    {
      "time": "2615i",
      "midiNote": 68,
      "noteName": "G#4",
      "velocity": 0.6299212598425197,
      "duration": "25i"
    },
    {
      "time": "2639i",
      "midiNote": 67,
      "noteName": "G4",
      "velocity": 0.7007874015748031,
      "duration": "42i"
    },
    {
      "time": "2685i",
      "midiNote": 65,
      "noteName": "F4",
      "velocity": 0.6141732283464567,
      "duration": "72i"
    },
    {
      "time": "2757i",
      "midiNote": 67,
      "noteName": "G4",
      "velocity": 0.6850393700787402,
      "duration": "17i"
    },
    {
      "time": "2771i",
      "midiNote": 68,
      "noteName": "G#4",
      "velocity": 0.5984251968503937,
      "duration": "15i"
    },
    {
      "time": "2784i",
      "midiNote": 70,
      "noteName": "A#4",
      "velocity": 0.7401574803149606,
      "duration": "22i"
    },
    {
      "time": "2807i",
      "midiNote": 72,
      "noteName": "C5",
      "velocity": 0.6220472440944882,
      "duration": "20i"
    },
    {
      "time": "2830i",
      "midiNote": 68,
      "noteName": "G#4",
      "velocity": 0.5984251968503937,
      "duration": "27i"
    },
    {
      "time": "2854i",
      "midiNote": 65,
      "noteName": "F4",
      "velocity": 0.6771653543307087,
      "duration": "24i"
    },
    {
      "time": "2879i",
      "midiNote": 63,
      "noteName": "D#4",
      "velocity": 0.5354330708661418,
      "duration": "44i"
    },
    {
      "time": "2927i",
      "midiNote": 67,
      "noteName": "G4",
      "velocity": 0.7007874015748031,
      "duration": "24i"
    },
    {
      "time": "2951i",
      "midiNote": 65,
      "noteName": "F4",
      "velocity": 0.6299212598425197,
      "duration": "27i"
    },
    {
      "time": "2975i",
      "midiNote": 63,
      "noteName": "D#4",
      "velocity": 0.6299212598425197,
      "duration": "142i"
    }
  ],
  "strings (mid)": [
    {
      "time": "0i",
      "midiNote": 55,
      "noteName": "G3",
      "velocity": 0.5039370078740157,
      "duration": "62i"
    },
    {
      "time": "0i",
      "midiNote": 58,
      "noteName": "A#3",
      "velocity": 0.7244094488188977,
      "duration": "58i"
    },
    {
      "time": "70i",
      "midiNote": 58,
      "noteName": "A#3",
      "velocity": 0.7007874015748031,
      "duration": "15i"
    },
    {
      "time": "70i",
      "midiNote": 62,
      "noteName": "D4",
      "velocity": 0.6929133858267716,
      "duration": "19i"
    },
    {
      "time": "95i",
      "midiNote": 63,
      "noteName": "D#4",
      "velocity": 0.7795275590551181,
      "duration": "40i"
    },
    {
      "time": "95i",
      "midiNote": 58,
      "noteName": "A#3",
      "velocity": 0.7007874015748031,
      "duration": "23i"
    },
    {
      "time": "141i",
      "midiNote": 62,
      "noteName": "D4",
      "velocity": 0.6850393700787402,
      "duration": "37i"
    },
    {
      "time": "141i",
      "midiNote": 58,
      "noteName": "A#3",
      "velocity": 0.7244094488188977,
      "duration": "37i"
    },
    {
      "time": "192i",
      "midiNote": 58,
      "noteName": "A#3",
      "velocity": 0.7559055118110236,
      "duration": "36i"
    },
    {
      "time": "192i",
      "midiNote": 65,
      "noteName": "F4",
      "velocity": 0.6456692913385826,
      "duration": "42i"
    },
    {
      "time": "240i",
      "midiNote": 63,
      "noteName": "D#4",
      "velocity": 0.8031496062992126,
      "duration": "46i"
    },
    {
      "time": "240i",
      "midiNote": 58,
      "noteName": "A#3",
      "velocity": 0.6850393700787402,
      "duration": "35i"
    },
    {
      "time": "287i",
      "midiNote": 56,
      "noteName": "G#3",
      "velocity": 0.6299212598425197,
      "duration": "37i"
    },
    {
      "time": "288i",
      "midiNote": 58,
      "noteName": "A#3",
      "velocity": 0.7244094488188977,
      "duration": "34i"
    },
    {
      "time": "334i",
      "midiNote": 55,
      "noteName": "G3",
      "velocity": 0.5511811023622047,
      "duration": "43i"
    },
    {
      "time": "334i",
      "midiNote": 58,
      "noteName": "A#3",
      "velocity": 0.7795275590551181,
      "duration": "38i"
    },
    {
      "time": "381i",
      "midiNote": 63,
      "noteName": "D#4",
      "velocity": 0.7244094488188977,
      "duration": "28i"
    },
    {
      "time": "407i",
      "midiNote": 65,
      "noteName": "F4",
      "velocity": 0.6771653543307087,
      "duration": "19i"
    },
    {
      "time": "431i",
      "midiNote": 63,
      "noteName": "D#4",
      "velocity": 0.7007874015748031,
      "duration": "45i"
    },
    {
      "time": "431i",
      "midiNote": 67,
      "noteName": "G4",
      "velocity": 0.6614173228346457,
      "duration": "46i"
    },
    {
      "time": "478i",
      "midiNote": 60,
      "noteName": "C4",
      "velocity": 0.7244094488188977,
      "duration": "26i"
    },
    {
      "time": "503i",
      "midiNote": 62,
      "noteName": "D4",
      "velocity": 0.6456692913385826,
      "duration": "24i"
    },
    {
      "time": "526i",
      "midiNote": 63,
      "noteName": "D#4",
      "velocity": 0.7244094488188977,
      "duration": "38i"
    },
    {
      "time": "576i",
      "midiNote": 63,
      "noteName": "D#4",
      "velocity": 0.7244094488188977,
      "duration": "50i"
    },
    {
      "time": "576i",
      "midiNote": 60,
      "noteName": "C4",
      "velocity": 0.6377952755905512,
      "duration": "35i"
    },
    {
      "time": "624i",
      "midiNote": 60,
      "noteName": "C4",
      "velocity": 0.6929133858267716,
      "duration": "49i"
    },
    {
      "time": "672i",
      "midiNote": 62,
      "noteName": "D4",
      "velocity": 0.6850393700787402,
      "duration": "76i"
    },
    {
      "time": "672i",
      "midiNote": 65,
      "noteName": "F4",
      "velocity": 0.6456692913385826,
      "duration": "78i"
    },
    {
      "time": "767i",
      "midiNote": 58,
      "noteName": "A#3",
      "velocity": 0.7716535433070866,
      "duration": "62i"
    },
    {
      "time": "768i",
      "midiNote": 55,
      "noteName": "G3",
      "velocity": 0.5590551181102362,
      "duration": "56i"
    },
    {
      "time": "838i",
      "midiNote": 58,
      "noteName": "A#3",
      "velocity": 0.6456692913385826,
      "duration": "12i"
    },
    {
      "time": "839i",
      "midiNote": 62,
      "noteName": "D4",
      "velocity": 0.7716535433070866,
      "duration": "17i"
    },
    {
      "time": "862i",
      "midiNote": 63,
      "noteName": "D#4",
      "velocity": 0.7244094488188977,
      "duration": "39i"
    },
    {
      "time": "862i",
      "midiNote": 58,
      "noteName": "A#3",
      "velocity": 0.6535433070866141,
      "duration": "35i"
    },
    {
      "time": "910i",
      "midiNote": 58,
      "noteName": "A#3",
      "velocity": 0.6535433070866141,
      "duration": "42i"
    },
    {
      "time": "910i",
      "midiNote": 62,
      "noteName": "D4",
      "velocity": 0.7716535433070866,
      "duration": "33i"
    },
    {
      "time": "959i",
      "midiNote": 58,
      "noteName": "A#3",
      "velocity": 0.7007874015748031,
      "duration": "38i"
    },
    {
      "time": "959i",
      "midiNote": 65,
      "noteName": "F4",
      "velocity": 0.6614173228346457,
      "duration": "44i"
    },
    {
      "time": "1006i",
      "midiNote": 58,
      "noteName": "A#3",
      "velocity": 0.6377952755905512,
      "duration": "32i"
    },
    {
      "time": "1006i",
      "midiNote": 63,
      "noteName": "D#4",
      "velocity": 0.7559055118110236,
      "duration": "47i"
    },
    {
      "time": "1055i",
      "midiNote": 56,
      "noteName": "G#3",
      "velocity": 0.6377952755905512,
      "duration": "40i"
    },
    {
      "time": "1055i",
      "midiNote": 58,
      "noteName": "A#3",
      "velocity": 0.8031496062992126,
      "duration": "38i"
    },
    {
      "time": "1102i",
      "midiNote": 58,
      "noteName": "A#3",
      "velocity": 0.7716535433070866,
      "duration": "39i"
    },
    {
      "time": "1102i",
      "midiNote": 55,
      "noteName": "G3",
      "velocity": 0.6377952755905512,
      "duration": "38i"
    },
    {
      "time": "1151i",
      "midiNote": 63,
      "noteName": "D#4",
      "velocity": 0.8503937007874016,
      "duration": "24i"
    },
    {
      "time": "1175i",
      "midiNote": 65,
      "noteName": "F4",
      "velocity": 0.7165354330708661,
      "duration": "21i"
    },
    {
      "time": "1199i",
      "midiNote": 67,
      "noteName": "G4",
      "velocity": 0.7244094488188977,
      "duration": "43i"
    },
    {
      "time": "1199i",
      "midiNote": 63,
      "noteName": "D#4",
      "velocity": 0.7559055118110236,
      "duration": "48i"
    },
    {
      "time": "1248i",
      "midiNote": 60,
      "noteName": "C4",
      "velocity": 0.7795275590551181,
      "duration": "21i"
    },
    {
      "time": "1271i",
      "midiNote": 62,
      "noteName": "D4",
      "velocity": 0.6456692913385826,
      "duration": "24i"
    },
    {
      "time": "1295i",
      "midiNote": 63,
      "noteName": "D#4",
      "velocity": 0.6692913385826772,
      "duration": "36i"
    },
    {
      "time": "1343i",
      "midiNote": 63,
      "noteName": "D#4",
      "velocity": 0.7007874015748031,
      "duration": "49i"
    },
    {
      "time": "1343i",
      "midiNote": 60,
      "noteName": "C4",
      "velocity": 0.6299212598425197,
      "duration": "39i"
    },
    {
      "time": "1391i",
      "midiNote": 60,
      "noteName": "C4",
      "velocity": 0.6535433070866141,
      "duration": "49i"
    },
    {
      "time": "1439i",
      "midiNote": 62,
      "noteName": "D4",
      "velocity": 0.6535433070866141,
      "duration": "70i"
    },
    {
      "time": "1439i",
      "midiNote": 65,
      "noteName": "F4",
      "velocity": 0.6614173228346457,
      "duration": "72i"
    },
    {
      "time": "1536i",
      "midiNote": 58,
      "noteName": "A#3",
      "velocity": 0.6456692913385826,
      "duration": "51i"
    },
    {
      "time": "1536i",
      "midiNote": 62,
      "noteName": "D4",
      "velocity": 0.6535433070866141,
      "duration": "56i"
    },
    {
      "time": "1607i",
      "midiNote": 63,
      "noteName": "D#4",
      "velocity": 0.6377952755905512,
      "duration": "25i"
    },
    {
      "time": "1607i",
      "midiNote": 58,
      "noteName": "A#3",
      "velocity": 0.6535433070866141,
      "duration": "15i"
    },
    {
      "time": "1631i",
      "midiNote": 58,
      "noteName": "A#3",
      "velocity": 0.7401574803149606,
      "duration": "43i"
    },
    {
      "time": "1680i",
      "midiNote": 53,
      "noteName": "F3",
      "velocity": 0.6299212598425197,
      "duration": "33i"
    },
    {
      "time": "1680i",
      "midiNote": 58,
      "noteName": "A#3",
      "velocity": 0.6299212598425197,
      "duration": "33i"
    },
    {
      "time": "1727i",
      "midiNote": 58,
      "noteName": "A#3",
      "velocity": 0.6535433070866141,
      "duration": "36i"
    },
    {
      "time": "1727i",
      "midiNote": 65,
      "noteName": "F4",
      "velocity": 0.6929133858267716,
      "duration": "43i"
    },
    {
      "time": "1776i",
      "midiNote": 63,
      "noteName": "D#4",
      "velocity": 0.6614173228346457,
      "duration": "40i"
    },
    {
      "time": "1776i",
      "midiNote": 58,
      "noteName": "A#3",
      "velocity": 0.5905511811023622,
      "duration": "36i"
    },
    {
      "time": "1823i",
      "midiNote": 53,
      "noteName": "F3",
      "velocity": 0.7559055118110236,
      "duration": "73i"
    },
    {
      "time": "1823i",
      "midiNote": 58,
      "noteName": "A#3",
      "velocity": 0.7559055118110236,
      "duration": "73i"
    },
    {
      "time": "1919i",
      "midiNote": 63,
      "noteName": "D#4",
      "velocity": 0.7559055118110236,
      "duration": "49i"
    },
    {
      "time": "1919i",
      "midiNote": 58,
      "noteName": "A#3",
      "velocity": 0.6850393700787402,
      "duration": "34i"
    },
    {
      "time": "1968i",
      "midiNote": 60,
      "noteName": "C4",
      "velocity": 0.7559055118110236,
      "duration": "21i"
    },
    {
      "time": "1990i",
      "midiNote": 62,
      "noteName": "D4",
      "velocity": 0.6771653543307087,
      "duration": "21i"
    },
    {
      "time": "2014i",
      "midiNote": 63,
      "noteName": "D#4",
      "velocity": 0.7559055118110236,
      "duration": "59i"
    },
    {
      "time": "2014i",
      "midiNote": 60,
      "noteName": "C4",
      "velocity": 0.6141732283464567,
      "duration": "62i"
    },
    {
      "time": "2087i",
      "midiNote": 63,
      "noteName": "D#4",
      "velocity": 0.7007874015748031,
      "duration": "17i"
    },
    {
      "time": "2111i",
      "midiNote": 63,
      "noteName": "D#4",
      "velocity": 0.7716535433070866,
      "duration": "33i"
    },
    {
      "time": "2111i",
      "midiNote": 60,
      "noteName": "C4",
      "velocity": 0.6456692913385826,
      "duration": "33i"
    },
    {
      "time": "2158i",
      "midiNote": 63,
      "noteName": "D#4",
      "velocity": 0.6692913385826772,
      "duration": "21i"
    },
    {
      "time": "2158i",
      "midiNote": 60,
      "noteName": "C4",
      "velocity": 0.6929133858267716,
      "duration": "26i"
    },
    {
      "time": "2183i",
      "midiNote": 62,
      "noteName": "D4",
      "velocity": 0.6929133858267716,
      "duration": "17i"
    },
    {
      "time": "2183i",
      "midiNote": 65,
      "noteName": "F4",
      "velocity": 0.6771653543307087,
      "duration": "16i"
    },
    {
      "time": "2207i",
      "midiNote": 65,
      "noteName": "F4",
      "velocity": 0.6062992125984252,
      "duration": "67i"
    },
    {
      "time": "2207i",
      "midiNote": 62,
      "noteName": "D4",
      "velocity": 0.6692913385826772,
      "duration": "66i"
    },
    {
      "time": "2302i",
      "midiNote": 70,
      "noteName": "A#4",
      "velocity": 0.8110236220472441,
      "duration": "62i"
    },
    {
      "time": "2302i",
      "midiNote": 63,
      "noteName": "D#4",
      "velocity": 0.6692913385826772,
      "duration": "78i"
    },
    {
      "time": "2375i",
      "midiNote": 70,
      "noteName": "A#4",
      "velocity": 0.8031496062992126,
      "duration": "21i"
    },
    {
      "time": "2399i",
      "midiNote": 68,
      "noteName": "G#4",
      "velocity": 0.7244094488188977,
      "duration": "45i"
    },
    {
      "time": "2399i",
      "midiNote": 63,
      "noteName": "D#4",
      "velocity": 0.6377952755905512,
      "duration": "79i"
    },
    {
      "time": "2447i",
      "midiNote": 67,
      "noteName": "G4",
      "velocity": 0.7716535433070866,
      "duration": "45i"
    },
    {
      "time": "2495i",
      "midiNote": 68,
      "noteName": "G#4",
      "velocity": 0.7007874015748031,
      "duration": "70i"
    },
    {
      "time": "2495i",
      "midiNote": 63,
      "noteName": "D#4",
      "velocity": 0.6141732283464567,
      "duration": "85i"
    },
    {
      "time": "2567i",
      "midiNote": 67,
      "noteName": "G4",
      "velocity": 0.8031496062992126,
      "duration": "21i"
    },
    {
      "time": "2592i",
      "midiNote": 65,
      "noteName": "F4",
      "velocity": 0.7401574803149606,
      "duration": "45i"
    },
    {
      "time": "2592i",
      "midiNote": 62,
      "noteName": "D4",
      "velocity": 0.6062992125984252,
      "duration": "47i"
    },
    {
      "time": "2639i",
      "midiNote": 63,
      "noteName": "D#4",
      "velocity": 0.6535433070866141,
      "duration": "34i"
    },
    {
      "time": "2639i",
      "midiNote": 67,
      "noteName": "G4",
      "velocity": 0.7007874015748031,
      "duration": "33i"
    },
    {
      "time": "2687i",
      "midiNote": 58,
      "noteName": "A#3",
      "velocity": 0.7007874015748031,
      "duration": "99i"
    },
    {
      "time": "2687i",
      "midiNote": 62,
      "noteName": "D4",
      "velocity": 0.8031496062992126,
      "duration": "85i"
    },
    {
      "time": "2782i",
      "midiNote": 63,
      "noteName": "D#4",
      "velocity": 0.8031496062992126,
      "duration": "50i"
    },
    {
      "time": "2831i",
      "midiNote": 60,
      "noteName": "C4",
      "velocity": 0.7401574803149606,
      "duration": "49i"
    },
    {
      "time": "2880i",
      "midiNote": 55,
      "noteName": "G3",
      "velocity": 0.6299212598425197,
      "duration": "31i"
    },
    {
      "time": "2880i",
      "midiNote": 58,
      "noteName": "A#3",
      "velocity": 0.7716535433070866,
      "duration": "45i"
    },
    {
      "time": "2928i",
      "midiNote": 56,
      "noteName": "G#3",
      "velocity": 0.7401574803149606,
      "duration": "44i"
    },
    {
      "time": "2928i",
      "midiNote": 62,
      "noteName": "D4",
      "velocity": 0.7480314960629921,
      "duration": "46i"
    },
    {
      "time": "2976i",
      "midiNote": 58,
      "noteName": "A#3",
      "velocity": 0.7559055118110236,
      "duration": "145i"
    },
    {
      "time": "2976i",
      "midiNote": 55,
      "noteName": "G3",
      "velocity": 0.44881889763779526,
      "duration": "143i"
    },
    {
      "time": "2976i",
      "midiNote": 63,
      "noteName": "D#4",
      "velocity": 0.7401574803149606,
      "duration": "146i"
    }
  ],
  "strings (bass)": [
    {
      "time": "0i",
      "midiNote": 51,
      "noteName": "D#3",
      "velocity": 0.7007874015748031,
      "duration": "63i"
    },
    {
      "time": "73i",
      "midiNote": 46,
      "noteName": "A#2",
      "velocity": 0.7795275590551181,
      "duration": "20i"
    },
    {
      "time": "96i",
      "midiNote": 51,
      "noteName": "D#3",
      "velocity": 0.7007874015748031,
      "duration": "40i"
    },
    {
      "time": "143i",
      "midiNote": 46,
      "noteName": "A#2",
      "velocity": 0.7086614173228346,
      "duration": "40i"
    },
    {
      "time": "192i",
      "midiNote": 50,
      "noteName": "D3",
      "velocity": 0.6535433070866141,
      "duration": "46i"
    },
    {
      "time": "240i",
      "midiNote": 51,
      "noteName": "D#3",
      "velocity": 0.7007874015748031,
      "duration": "42i"
    },
    {
      "time": "287i",
      "midiNote": 46,
      "noteName": "A#2",
      "velocity": 0.7401574803149606,
      "duration": "44i"
    },
    {
      "time": "334i",
      "midiNote": 51,
      "noteName": "D#3",
      "velocity": 0.7007874015748031,
      "duration": "33i"
    },
    {
      "time": "382i",
      "midiNote": 44,
      "noteName": "G#2",
      "velocity": 0.7322834645669292,
      "duration": "46i"
    },
    {
      "time": "430i",
      "midiNote": 51,
      "noteName": "D#3",
      "velocity": 0.7401574803149606,
      "duration": "48i"
    },
    {
      "time": "479i",
      "midiNote": 53,
      "noteName": "F3",
      "velocity": 0.7086614173228346,
      "duration": "49i"
    },
    {
      "time": "527i",
      "midiNote": 51,
      "noteName": "D#3",
      "velocity": 0.7322834645669292,
      "duration": "41i"
    },
    {
      "time": "575i",
      "midiNote": 44,
      "noteName": "G#2",
      "velocity": 0.7007874015748031,
      "duration": "42i"
    },
    {
      "time": "623i",
      "midiNote": 45,
      "noteName": "A2",
      "velocity": 0.7244094488188977,
      "duration": "44i"
    },
    {
      "time": "671i",
      "midiNote": 46,
      "noteName": "A#2",
      "velocity": 0.7322834645669292,
      "duration": "76i"
    },
    {
      "time": "767i",
      "midiNote": 51,
      "noteName": "D#3",
      "velocity": 0.7637795275590551,
      "duration": "60i"
    },
    {
      "time": "839i",
      "midiNote": 46,
      "noteName": "A#2",
      "velocity": 0.7322834645669292,
      "duration": "21i"
    },
    {
      "time": "863i",
      "midiNote": 51,
      "noteName": "D#3",
      "velocity": 0.7086614173228346,
      "duration": "44i"
    },
    {
      "time": "911i",
      "midiNote": 46,
      "noteName": "A#2",
      "velocity": 0.7401574803149606,
      "duration": "37i"
    },
    {
      "time": "958i",
      "midiNote": 50,
      "noteName": "D3",
      "velocity": 0.7086614173228346,
      "duration": "48i"
    },
    {
      "time": "1007i",
      "midiNote": 51,
      "noteName": "D#3",
      "velocity": 0.6692913385826772,
      "duration": "44i"
    },
    {
      "time": "1056i",
      "midiNote": 46,
      "noteName": "A#2",
      "velocity": 0.6850393700787402,
      "duration": "48i"
    },
    {
      "time": "1103i",
      "midiNote": 51,
      "noteName": "D#3",
      "velocity": 0.7007874015748031,
      "duration": "34i"
    },
    {
      "time": "1151i",
      "midiNote": 44,
      "noteName": "G#2",
      "velocity": 0.7086614173228346,
      "duration": "49i"
    },
    {
      "time": "1200i",
      "midiNote": 51,
      "noteName": "D#3",
      "velocity": 0.6535433070866141,
      "duration": "47i"
    },
    {
      "time": "1248i",
      "midiNote": 53,
      "noteName": "F3",
      "velocity": 0.7322834645669292,
      "duration": "48i"
    },
    {
      "time": "1295i",
      "midiNote": 51,
      "noteName": "D#3",
      "velocity": 0.7795275590551181,
      "duration": "35i"
    },
    {
      "time": "1342i",
      "midiNote": 44,
      "noteName": "G#2",
      "velocity": 0.7401574803149606,
      "duration": "40i"
    },
    {
      "time": "1390i",
      "midiNote": 45,
      "noteName": "A2",
      "velocity": 0.7874015748031497,
      "duration": "45i"
    },
    {
      "time": "1438i",
      "midiNote": 46,
      "noteName": "A#2",
      "velocity": 0.7637795275590551,
      "duration": "74i"
    },
    {
      "time": "1536i",
      "midiNote": 46,
      "noteName": "A#2",
      "velocity": 0.7401574803149606,
      "duration": "66i"
    },
    {
      "time": "1608i",
      "midiNote": 51,
      "noteName": "D#3",
      "velocity": 0.7007874015748031,
      "duration": "26i"
    },
    {
      "time": "1633i",
      "midiNote": 46,
      "noteName": "A#2",
      "velocity": 0.7401574803149606,
      "duration": "73i"
    },
    {
      "time": "1727i",
      "midiNote": 50,
      "noteName": "D3",
      "velocity": 0.7086614173228346,
      "duration": "48i"
    },
    {
      "time": "1776i",
      "midiNote": 51,
      "noteName": "D#3",
      "velocity": 0.6850393700787402,
      "duration": "47i"
    },
    {
      "time": "1823i",
      "midiNote": 46,
      "noteName": "A#2",
      "velocity": 0.7086614173228346,
      "duration": "67i"
    },
    {
      "time": "1919i",
      "midiNote": 43,
      "noteName": "G2",
      "velocity": 0.7401574803149606,
      "duration": "45i"
    },
    {
      "time": "1967i",
      "midiNote": 44,
      "noteName": "G#2",
      "velocity": 0.7007874015748031,
      "duration": "24i"
    },
    {
      "time": "1990i",
      "midiNote": 46,
      "noteName": "A#2",
      "velocity": 0.7637795275590551,
      "duration": "23i"
    },
    {
      "time": "2015i",
      "midiNote": 51,
      "noteName": "D#3",
      "velocity": 0.7322834645669292,
      "duration": "75i"
    },
    {
      "time": "2111i",
      "midiNote": 41,
      "noteName": "F2",
      "velocity": 0.7007874015748031,
      "duration": "98i"
    },
    {
      "time": "2208i",
      "midiNote": 46,
      "noteName": "A#2",
      "velocity": 0.6692913385826772,
      "duration": "72i"
    },
    {
      "time": "2303i",
      "midiNote": 43,
      "noteName": "G2",
      "velocity": 0.6692913385826772,
      "duration": "48i"
    },
    {
      "time": "2351i",
      "midiNote": 55,
      "noteName": "G3",
      "velocity": 0.5433070866141733,
      "duration": "51i"
    },
    {
      "time": "2400i",
      "midiNote": 56,
      "noteName": "G#3",
      "velocity": 0.6692913385826772,
      "duration": "46i"
    },
    {
      "time": "2447i",
      "midiNote": 51,
      "noteName": "D#3",
      "velocity": 0.6850393700787402,
      "duration": "46i"
    },
    {
      "time": "2496i",
      "midiNote": 44,
      "noteName": "G#2",
      "velocity": 0.6535433070866141,
      "duration": "56i"
    },
    {
      "time": "2567i",
      "midiNote": 51,
      "noteName": "D#3",
      "velocity": 0.6535433070866141,
      "duration": "24i"
    },
    {
      "time": "2592i",
      "midiNote": 46,
      "noteName": "A#2",
      "velocity": 0.7007874015748031,
      "duration": "48i"
    },
    {
      "time": "2640i",
      "midiNote": 51,
      "noteName": "D#3",
      "velocity": 0.6692913385826772,
      "duration": "38i"
    },
    {
      "time": "2688i",
      "midiNote": 44,
      "noteName": "G#2",
      "velocity": 0.6692913385826772,
      "duration": "83i"
    },
    {
      "time": "2782i",
      "midiNote": 43,
      "noteName": "G2",
      "velocity": 0.6299212598425197,
      "duration": "45i"
    },
    {
      "time": "2831i",
      "midiNote": 44,
      "noteName": "G#2",
      "velocity": 0.6850393700787402,
      "duration": "48i"
    },
    {
      "time": "2879i",
      "midiNote": 46,
      "noteName": "A#2",
      "velocity": 0.7795275590551181,
      "duration": "35i"
    },
    {
      "time": "2926i",
      "midiNote": 46,
      "noteName": "A#2",
      "velocity": 0.7637795275590551,
      "duration": "52i"
    },
    {
      "time": "2976i",
      "midiNote": 39,
      "noteName": "D#2",
      "velocity": 0.6692913385826772,
      "duration": "147i"
    }
  ],
  "timpani": [
    {
      "time": "695i",
      "midiNote": 46,
      "noteName": "A#2",
      "velocity": 0.5590551181102362,
      "duration": "7i"
    },
    {
      "time": "707i",
      "midiNote": 46,
      "noteName": "A#2",
      "velocity": 0.6141732283464567,
      "duration": "7i"
    },
    {
      "time": "719i",
      "midiNote": 46,
      "noteName": "A#2",
      "velocity": 1,
      "duration": "6i"
    },
    {
      "time": "731i",
      "midiNote": 46,
      "noteName": "A#2",
      "velocity": 0.905511811023622,
      "duration": "7i"
    },
    {
      "time": "743i",
      "midiNote": 46,
      "noteName": "A#2",
      "velocity": 1,
      "duration": "6i"
    },
    {
      "time": "756i",
      "midiNote": 46,
      "noteName": "A#2",
      "velocity": 1,
      "duration": "11i"
    },
    {
      "time": "769i",
      "midiNote": 51,
      "noteName": "D#3",
      "velocity": 1,
      "duration": "51i"
    },
    {
      "time": "1464i",
      "midiNote": 46,
      "noteName": "A#2",
      "velocity": 0.6692913385826772,
      "duration": "4i"
    },
    {
      "time": "1476i",
      "midiNote": 46,
      "noteName": "A#2",
      "velocity": 0.8346456692913385,
      "duration": "4i"
    },
    {
      "time": "1488i",
      "midiNote": 46,
      "noteName": "A#2",
      "velocity": 0.937007874015748,
      "duration": "7i"
    },
    {
      "time": "1511i",
      "midiNote": 46,
      "noteName": "A#2",
      "velocity": 0.968503937007874,
      "duration": "4i"
    },
    {
      "time": "1535i",
      "midiNote": 46,
      "noteName": "A#2",
      "velocity": 1,
      "duration": "8i"
    },
    {
      "time": "1607i",
      "midiNote": 51,
      "noteName": "D#3",
      "velocity": 0.7007874015748031,
      "duration": "8i"
    },
    {
      "time": "1632i",
      "midiNote": 46,
      "noteName": "A#2",
      "velocity": 0.8582677165354331,
      "duration": "17i"
    },
    {
      "time": "2160i",
      "midiNote": 41,
      "noteName": "F2",
      "velocity": 0.5511811023622047,
      "duration": "9i"
    },
    {
      "time": "2184i",
      "midiNote": 41,
      "noteName": "F2",
      "velocity": 0.8346456692913385,
      "duration": "9i"
    },
    {
      "time": "2208i",
      "midiNote": 46,
      "noteName": "A#2",
      "velocity": 0.8740157480314961,
      "duration": "11i"
    },
    {
      "time": "2231i",
      "midiNote": 46,
      "noteName": "A#2",
      "velocity": 0.8582677165354331,
      "duration": "5i"
    },
    {
      "time": "2243i",
      "midiNote": 46,
      "noteName": "A#2",
      "velocity": 0.8346456692913385,
      "duration": "8i"
    },
    {
      "time": "2256i",
      "midiNote": 46,
      "noteName": "A#2",
      "velocity": 1,
      "duration": "6i"
    },
    {
      "time": "2279i",
      "midiNote": 46,
      "noteName": "A#2",
      "velocity": 1,
      "duration": "5i"
    },
    {
      "time": "2304i",
      "midiNote": 43,
      "noteName": "G2",
      "velocity": 1,
      "duration": "70i"
    },
    {
      "time": "2832i",
      "midiNote": 44,
      "noteName": "G#2",
      "velocity": 0.6850393700787402,
      "duration": "14i"
    },
    {
      "time": "2880i",
      "midiNote": 46,
      "noteName": "A#2",
      "velocity": 0.937007874015748,
      "duration": "30i"
    },
    {
      "time": "2928i",
      "midiNote": 46,
      "noteName": "A#2",
      "velocity": 0.968503937007874,
      "duration": "18i"
    },
    {
      "time": "2977i",
      "midiNote": 39,
      "noteName": "D#2",
      "velocity": 0.937007874015748,
      "duration": "26i"
    },
    {
      "time": "3047i",
      "midiNote": 39,
      "noteName": "D#2",
      "velocity": 0.2283464566929134,
      "duration": "6i"
    },
    {
      "time": "3056i",
      "midiNote": 39,
      "noteName": "D#2",
      "velocity": 0.3228346456692913,
      "duration": "4i"
    },
    {
      "time": "3063i",
      "midiNote": 39,
      "noteName": "D#2",
      "velocity": 0.3700787401574803,
      "duration": "4i"
    },
    {
      "time": "3070i",
      "midiNote": 39,
      "noteName": "D#2",
      "velocity": 0.48031496062992124,
      "duration": "3i"
    },
    {
      "time": "3077i",
      "midiNote": 39,
      "noteName": "D#2",
      "velocity": 0.49606299212598426,
      "duration": "3i"
    },
    {
      "time": "3083i",
      "midiNote": 39,
      "noteName": "D#2",
      "velocity": 0.6377952755905512,
      "duration": "3i"
    },
    {
      "time": "3089i",
      "midiNote": 39,
      "noteName": "D#2",
      "velocity": 0.7480314960629921,
      "duration": "4i"
    },
    {
      "time": "3096i",
      "midiNote": 39,
      "noteName": "D#2",
      "velocity": 0.7952755905511811,
      "duration": "4i"
    },
    {
      "time": "3101i",
      "midiNote": 39,
      "noteName": "D#2",
      "velocity": 0.937007874015748,
      "duration": "4i"
    },
    {
      "time": "3107i",
      "midiNote": 39,
      "noteName": "D#2",
      "velocity": 0.968503937007874,
      "duration": "4i"
    },
    {
      "time": "3114i",
      "midiNote": 39,
      "noteName": "D#2",
      "velocity": 1,
      "duration": "4i"
    },
    {
      "time": "3118i",
      "midiNote": 39,
      "noteName": "D#2",
      "velocity": 1,
      "duration": "52i"
    }
  ],
  "cymbals": [
    {
      "time": "768i",
      "midiNote": 49,
      "noteName": "C#3",
      "velocity": 0.4094488188976378,
      "duration": "72i"
    },
    {
      "time": "768i",
      "midiNote": 57,
      "noteName": "A3",
      "velocity": 0.4094488188976378,
      "duration": "60i"
    },
    {
      "time": "1535i",
      "midiNote": 49,
      "noteName": "C#3",
      "velocity": 0.4094488188976378,
      "duration": "6i"
    },
    {
      "time": "1536i",
      "midiNote": 57,
      "noteName": "A3",
      "velocity": 0.4094488188976378,
      "duration": "7i"
    },
    {
      "time": "2303i",
      "midiNote": 49,
      "noteName": "C#3",
      "velocity": 0.4094488188976378,
      "duration": "14i"
    },
    {
      "time": "2303i",
      "midiNote": 57,
      "noteName": "A3",
      "velocity": 0.4094488188976378,
      "duration": "12i"
    },
    {
      "time": "2976i",
      "midiNote": 49,
      "noteName": "C#3",
      "velocity": 0.4094488188976378,
      "duration": "7i"
    },
    {
      "time": "2976i",
      "midiNote": 57,
      "noteName": "A3",
      "velocity": 0.4094488188976378,
      "duration": "7i"
    },
    {
      "time": "3125i",
      "midiNote": 49,
      "noteName": "C#3",
      "velocity": 0.4881889763779528,
      "duration": "9i"
    },
    {
      "time": "3126i",
      "midiNote": 57,
      "noteName": "A3",
      "velocity": 0.48031496062992124,
      "duration": "8i"
    }
  ],
  "strings 8va": [
    {
      "time": "0i",
      "midiNote": 75,
      "noteName": "D#5",
      "velocity": 0.6141732283464567,
      "duration": "70i"
    },
    {
      "time": "72i",
      "midiNote": 77,
      "noteName": "F5",
      "velocity": 0.6220472440944882,
      "duration": "26i"
    },
    {
      "time": "97i",
      "midiNote": 79,
      "noteName": "G5",
      "velocity": 0.5590551181102362,
      "duration": "41i"
    },
    {
      "time": "142i",
      "midiNote": 77,
      "noteName": "F5",
      "velocity": 0.5354330708661418,
      "duration": "35i"
    },
    {
      "time": "191i",
      "midiNote": 80,
      "noteName": "G#5",
      "velocity": 0.6535433070866141,
      "duration": "46i"
    },
    {
      "time": "238i",
      "midiNote": 79,
      "noteName": "G5",
      "velocity": 0.5826771653543307,
      "duration": "46i"
    },
    {
      "time": "286i",
      "midiNote": 77,
      "noteName": "F5",
      "velocity": 0.5984251968503937,
      "duration": "24i"
    },
    {
      "time": "310i",
      "midiNote": 74,
      "noteName": "D5",
      "velocity": 0.5748031496062992,
      "duration": "26i"
    },
    {
      "time": "333i",
      "midiNote": 75,
      "noteName": "D#5",
      "velocity": 0.6299212598425197,
      "duration": "32i"
    },
    {
      "time": "382i",
      "midiNote": 84,
      "noteName": "C6",
      "velocity": 0.6299212598425197,
      "duration": "52i"
    },
    {
      "time": "430i",
      "midiNote": 82,
      "noteName": "A#5",
      "velocity": 0.6535433070866141,
      "duration": "45i"
    },
    {
      "time": "478i",
      "midiNote": 80,
      "noteName": "G#5",
      "velocity": 0.5354330708661418,
      "duration": "52i"
    },
    {
      "time": "527i",
      "midiNote": 79,
      "noteName": "G5",
      "velocity": 0.5748031496062992,
      "duration": "46i"
    },
    {
      "time": "575i",
      "midiNote": 77,
      "noteName": "F5",
      "velocity": 0.5039370078740157,
      "duration": "51i"
    },
    {
      "time": "622i",
      "midiNote": 79,
      "noteName": "G5",
      "velocity": 0.5118110236220472,
      "duration": "26i"
    },
    {
      "time": "647i",
      "midiNote": 75,
      "noteName": "D#5",
      "velocity": 0.5669291338582677,
      "duration": "29i"
    },
    {
      "time": "671i",
      "midiNote": 82,
      "noteName": "A#5",
      "velocity": 0.5826771653543307,
      "duration": "82i"
    },
    {
      "time": "769i",
      "midiNote": 75,
      "noteName": "D#5",
      "velocity": 0.6535433070866141,
      "duration": "67i"
    },
    {
      "time": "839i",
      "midiNote": 77,
      "noteName": "F5",
      "velocity": 0.6299212598425197,
      "duration": "23i"
    },
    {
      "time": "863i",
      "midiNote": 79,
      "noteName": "G5",
      "velocity": 0.4645669291338583,
      "duration": "44i"
    },
    {
      "time": "910i",
      "midiNote": 77,
      "noteName": "F5",
      "velocity": 0.5433070866141733,
      "duration": "33i"
    },
    {
      "time": "957i",
      "midiNote": 80,
      "noteName": "G#5",
      "velocity": 0.6535433070866141,
      "duration": "47i"
    },
    {
      "time": "1006i",
      "midiNote": 79,
      "noteName": "G5",
      "velocity": 0.6141732283464567,
      "duration": "46i"
    },
    {
      "time": "1054i",
      "midiNote": 77,
      "noteName": "F5",
      "velocity": 0.6299212598425197,
      "duration": "22i"
    },
    {
      "time": "1078i",
      "midiNote": 74,
      "noteName": "D5",
      "velocity": 0.5433070866141733,
      "duration": "25i"
    },
    {
      "time": "1102i",
      "midiNote": 75,
      "noteName": "D#5",
      "velocity": 0.6299212598425197,
      "duration": "36i"
    },
    {
      "time": "1151i",
      "midiNote": 84,
      "noteName": "C6",
      "velocity": 0.7244094488188977,
      "duration": "48i"
    },
    {
      "time": "1199i",
      "midiNote": 82,
      "noteName": "A#5",
      "velocity": 0.7007874015748031,
      "duration": "48i"
    },
    {
      "time": "1248i",
      "midiNote": 80,
      "noteName": "G#5",
      "velocity": 0.6692913385826772,
      "duration": "48i"
    },
    {
      "time": "1295i",
      "midiNote": 79,
      "noteName": "G5",
      "velocity": 0.6456692913385826,
      "duration": "45i"
    },
    {
      "time": "1342i",
      "midiNote": 77,
      "noteName": "F5",
      "velocity": 0.6062992125984252,
      "duration": "46i"
    },
    {
      "time": "1390i",
      "midiNote": 79,
      "noteName": "G5",
      "velocity": 0.6299212598425197,
      "duration": "24i"
    },
    {
      "time": "1414i",
      "midiNote": 75,
      "noteName": "D#5",
      "velocity": 0.6299212598425197,
      "duration": "28i"
    },
    {
      "time": "1439i",
      "midiNote": 82,
      "noteName": "A#5",
      "velocity": 0.6535433070866141,
      "duration": "76i"
    },
    {
      "time": "1535i",
      "midiNote": 77,
      "noteName": "F5",
      "velocity": 0.6456692913385826,
      "duration": "68i"
    },
    {
      "time": "1608i",
      "midiNote": 79,
      "noteName": "G5",
      "velocity": 0.6299212598425197,
      "duration": "21i"
    },
    {
      "time": "1631i",
      "midiNote": 77,
      "noteName": "F5",
      "velocity": 0.5354330708661418,
      "duration": "21i"
    },
    {
      "time": "1654i",
      "midiNote": 74,
      "noteName": "D5",
      "velocity": 0.5748031496062992,
      "duration": "22i"
    },
    {
      "time": "1678i",
      "midiNote": 70,
      "noteName": "A#4",
      "velocity": 0.6299212598425197,
      "duration": "42i"
    },
    {
      "time": "1728i",
      "midiNote": 80,
      "noteName": "G#5",
      "velocity": 0.7007874015748031,
      "duration": "45i"
    },
    {
      "time": "1775i",
      "midiNote": 79,
      "noteName": "G5",
      "velocity": 0.5039370078740157,
      "duration": "46i"
    },
    {
      "time": "1822i",
      "midiNote": 77,
      "noteName": "F5",
      "velocity": 0.6535433070866141,
      "duration": "23i"
    },
    {
      "time": "1846i",
      "midiNote": 74,
      "noteName": "D5",
      "velocity": 0.5590551181102362,
      "duration": "24i"
    },
    {
      "time": "1870i",
      "midiNote": 70,
      "noteName": "A#4",
      "velocity": 0.6692913385826772,
      "duration": "42i"
    },
    {
      "time": "1919i",
      "midiNote": 82,
      "noteName": "A#5",
      "velocity": 0.7007874015748031,
      "duration": "51i"
    },
    {
      "time": "1967i",
      "midiNote": 80,
      "noteName": "G#5",
      "velocity": 0.6850393700787402,
      "duration": "45i"
    },
    {
      "time": "2015i",
      "midiNote": 79,
      "noteName": "G5",
      "velocity": 0.6220472440944882,
      "duration": "62i"
    },
    {
      "time": "2087i",
      "midiNote": 79,
      "noteName": "G5",
      "velocity": 0.5984251968503937,
      "duration": "23i"
    },
    {
      "time": "2111i",
      "midiNote": 81,
      "noteName": "A5",
      "velocity": 0.6535433070866141,
      "duration": "41i"
    },
    {
      "time": "2159i",
      "midiNote": 81,
      "noteName": "A5",
      "velocity": 0.5905511811023622,
      "duration": "28i"
    },
    {
      "time": "2184i",
      "midiNote": 82,
      "noteName": "A#5",
      "velocity": 0.6692913385826772,
      "duration": "16i"
    },
    {
      "time": "2208i",
      "midiNote": 82,
      "noteName": "A#5",
      "velocity": 0.5905511811023622,
      "duration": "80i"
    },
    {
      "time": "2302i",
      "midiNote": 87,
      "noteName": "D#6",
      "velocity": 0.6299212598425197,
      "duration": "81i"
    },
    {
      "time": "2377i",
      "midiNote": 86,
      "noteName": "D6",
      "velocity": 0.6456692913385826,
      "duration": "15i"
    },
    {
      "time": "2400i",
      "midiNote": 86,
      "noteName": "D6",
      "velocity": 0.5669291338582677,
      "duration": "26i"
    },
    {
      "time": "2423i",
      "midiNote": 84,
      "noteName": "C6",
      "velocity": 0.6141732283464567,
      "duration": "25i"
    },
    {
      "time": "2448i",
      "midiNote": 82,
      "noteName": "A#5",
      "velocity": 0.6299212598425197,
      "duration": "43i"
    },
    {
      "time": "2494i",
      "midiNote": 84,
      "noteName": "C6",
      "velocity": 0.6771653543307087,
      "duration": "75i"
    },
    {
      "time": "2567i",
      "midiNote": 82,
      "noteName": "A#5",
      "velocity": 0.6141732283464567,
      "duration": "15i"
    },
    {
      "time": "2590i",
      "midiNote": 82,
      "noteName": "A#5",
      "velocity": 0.6692913385826772,
      "duration": "26i"
    },
    {
      "time": "2614i",
      "midiNote": 80,
      "noteName": "G#5",
      "velocity": 0.6692913385826772,
      "duration": "26i"
    },
    {
      "time": "2639i",
      "midiNote": 79,
      "noteName": "G5",
      "velocity": 0.6535433070866141,
      "duration": "36i"
    },
    {
      "time": "2685i",
      "midiNote": 77,
      "noteName": "F5",
      "velocity": 0.6062992125984252,
      "duration": "71i"
    },
    {
      "time": "2757i",
      "midiNote": 79,
      "noteName": "G5",
      "velocity": 0.6220472440944882,
      "duration": "15i"
    },
    {
      "time": "2769i",
      "midiNote": 80,
      "noteName": "G#5",
      "velocity": 0.6299212598425197,
      "duration": "12i"
    },
    {
      "time": "2782i",
      "midiNote": 82,
      "noteName": "A#5",
      "velocity": 0.6299212598425197,
      "duration": "24i"
    },
    {
      "time": "2806i",
      "midiNote": 84,
      "noteName": "C6",
      "velocity": 0.5669291338582677,
      "duration": "24i"
    },
    {
      "time": "2831i",
      "midiNote": 80,
      "noteName": "G#5",
      "velocity": 0.6299212598425197,
      "duration": "24i"
    },
    {
      "time": "2855i",
      "midiNote": 77,
      "noteName": "F5",
      "velocity": 0.5669291338582677,
      "duration": "23i"
    },
    {
      "time": "2879i",
      "midiNote": 75,
      "noteName": "D#5",
      "velocity": 0.6535433070866141,
      "duration": "39i"
    },
    {
      "time": "2927i",
      "midiNote": 79,
      "noteName": "G5",
      "velocity": 0.5984251968503937,
      "duration": "25i"
    },
    {
      "time": "2952i",
      "midiNote": 77,
      "noteName": "F5",
      "velocity": 0.5669291338582677,
      "duration": "27i"
    },
    {
      "time": "2976i",
      "midiNote": 75,
      "noteName": "D#5",
      "velocity": 0.6141732283464567,
      "duration": "148i"
    }
  ]
}
